<svg xmlns="http://www.w3.org/2000/svg" xmlns:xlink="http://www.w3.org/1999/xlink" width="99" height="99" viewBox="0 0 99 99">
  <defs>
    <clipPath id="clip-path">
      <rect id="Rectangle_24" data-name="Rectangle 24" width="99" height="99" transform="translate(81 523)" fill="#8a57dc" stroke="#8a57dc" stroke-width="1"/>
    </clipPath>
  </defs>
  <g id="Mask_Group_7" data-name="Mask Group 7" transform="translate(-81 -523)" clip-path="url(#clip-path)">
    <g id="undraw_learning_sketching_nd4f" transform="translate(81 533.052)">
      <path id="Path_232" data-name="Path 232" d="M66.149,17.282l-.063.011a13.8,13.8,0,0,1-6.77-.63c-1.33-.507-.877-.633-3.839-2.395C52,12.2,51.112,12.216,50.853,11.253c-.517-1.923,2.241-4.946,4.067-4.747a3.975,3.975,0,0,0,1.8.145,2.11,2.11,0,0,0,1.321-.867c.335-.569.051-.979.186-1.445.353-1.224,3.3-1.835,5.883-1.4,1.486.248,2.641.926,4.892,2.271,3.917,2.341,5.876,3.512,6.316,5.306.417,1.7-.584,2.433.144,4.252.678,1.694,1.755,1.581,2.126,2.952.6,2.206-1.617,4.627-2.54,5.635a14.081,14.081,0,0,1-3.262,2.518c-1.611,1.011-2.417,1.517-3.386,1.465-1.756-.093-6.974.224-7.043-1.229-.026-.545-6.354-.1-3.238-5.962.382-.719,7.87.049,7.969-.364" fill="#2f2e41"/>
      <path id="Path_233" data-name="Path 233" d="M69.179,21.034l5.383,8.029L59.111,32.187,60.1,22.135Z" fill="#ffb6b6"/>
      <path id="Path_234" data-name="Path 234" d="M69.179,21.034l5.383,8.029L59.111,32.187,60.1,22.135Z" opacity="0.1"/>
      <path id="Path_235" data-name="Path 235" d="M57.954,26.98l16.665-.694,7.406,4.05-.347,26.038,7.754,14.7L50.316,63.665l3.009-11.11L51.936,29.178Z" fill="#8a57dc"/>
      <path id="Path_236" data-name="Path 236" d="M.449,77.564a2.856,2.856,0,0,1-.168-2.772L6.623,61.465a2.885,2.885,0,0,1,2.592-1.637H89.327a2.863,2.863,0,0,1,2.542,1.537l6.8,12.959a2.871,2.871,0,0,1-2.531,4.2L2.884,78.9H2.873A2.855,2.855,0,0,1,.449,77.564Z" fill="#fff"/>
      <path id="Path_237" data-name="Path 237" d="M.449,77.564a2.856,2.856,0,0,1-.168-2.772L6.623,61.465a2.885,2.885,0,0,1,2.592-1.637H89.327a2.863,2.863,0,0,1,2.542,1.537l6.8,12.959a2.871,2.871,0,0,1-2.531,4.2L2.884,78.9H2.873A2.855,2.855,0,0,1,.449,77.564ZM9.216,60.13A2.582,2.582,0,0,0,6.9,61.595L.553,74.921A2.57,2.57,0,0,0,2.873,78.6h.01l93.253-.367A2.57,2.57,0,0,0,98.4,74.465L91.6,61.505a2.563,2.563,0,0,0-2.276-1.376H9.216Z" fill="#3f3d56"/>
      <path id="Path_238" data-name="Path 238" d="M81.869,73.8l-33.06-2.273a1.1,1.1,0,0,1-.489-2.036l7.311-4.386a1.09,1.09,0,0,1,.614-.155l28.6,1.3a1.1,1.1,0,0,1,.919,1.611l-2.847,5.359a1.1,1.1,0,0,1-.969.583l-.075,0Z" fill="#3f3d56"/>
      <path id="Path_239" data-name="Path 239" d="M48.522,70.2,81.446,72.46l2.6-5.613L55.819,65.74Z" fill="#fff"/>
      <circle id="Ellipse_54" data-name="Ellipse 54" cx="9.894" cy="9.894" r="9.894" transform="translate(54.83 3.951)" fill="#ffb6b6"/>
      <path id="Path_240" data-name="Path 240" d="M67.911,14.485l-.063.011a13.8,13.8,0,0,1-6.77-.63c-1.33-.507-.877-.633-3.839-2.395C53.765,9.4,52.874,9.419,52.615,8.456c-.517-1.923,2.241-4.946,4.067-4.747a3.975,3.975,0,0,0,1.8.145A2.11,2.11,0,0,0,59.8,2.986c.335-.569.051-.979.186-1.445.353-1.224,3.3-1.835,5.883-1.4,1.486.248,2.641.926,4.892,2.271,3.917,2.341,5.876,3.512,6.316,5.306.417,1.7-.584,2.433.144,4.252.678,1.694,1.755,1.581,2.126,2.952.6,2.206-1.617,4.627-2.54,5.635a14.081,14.081,0,0,1-3.262,2.518c-1.611,1.011-2.417,1.517-3.386,1.465-1.756-.093-3.5-1.685-3.571-3.138-.026-.545.2-.708.764-2.58.234-.78.4-1.424.5-1.837" fill="#2f2e41"/>
      <path id="Path_241" data-name="Path 241" d="M74.692,67.492a1.267,1.267,0,0,1,1.156,1.213,1.761,1.761,0,0,1-.945,1.537,3.681,3.681,0,0,1-2.118.354,2.413,2.413,0,0,1-1.736-.778,1.488,1.488,0,0,1-.178-1.61,1.146,1.146,0,0,1,1.424-.435,1.373,1.373,0,0,1,.893,1.3,1.989,1.989,0,0,1-.9,1.612,3.465,3.465,0,0,1-1.962.511,5.565,5.565,0,0,1-2.151-.444,4.69,4.69,0,0,1-1.726-1.186A1.857,1.857,0,0,1,66,67.739a1.207,1.207,0,0,1,1.246-.8,1.544,1.544,0,0,1,1.262.814,1.689,1.689,0,0,1-.186,1.658,2.12,2.12,0,0,1-1.64.909,3.246,3.246,0,0,1-1.988-.592,17.449,17.449,0,0,0-1.59-1.119,1.948,1.948,0,0,0-.9-.235,6.222,6.222,0,0,0-1.177.209,1.978,1.978,0,0,1-1,0,1.436,1.436,0,0,1-.716-.494.826.826,0,0,1-.13-.773c.074-.209.409-.119.335.092-.172.488.419.846.832.891a2.87,2.87,0,0,0,.94-.128,3.854,3.854,0,0,1,.965-.141c1.156.028,1.92,1.017,2.852,1.553a2.132,2.132,0,0,0,3.015-.517,1.232,1.232,0,0,0-.036-1.328A1.217,1.217,0,0,0,67,67.287a.941.941,0,0,0-.737,1.035,2.012,2.012,0,0,0,.864,1.409,5.174,5.174,0,0,0,3.487,1.106,2.762,2.762,0,0,0,1.648-.57,1.557,1.557,0,0,0,.562-1.4,1.032,1.032,0,0,0-.915-.837.76.76,0,0,0-.852.751,1.3,1.3,0,0,0,.739,1.2,3.29,3.29,0,0,0,1.7.274,2.346,2.346,0,0,0,1.649-.648,1.117,1.117,0,0,0,.164-1.423.814.814,0,0,0-.616-.35c-.223-.009-.224-.356,0-.347h0Z" fill="#8a57dc"/>
      <path id="Path_242" data-name="Path 242" d="M58.869,67.121l.177-1.094,9.822-18.773a.636.636,0,0,1,1.128.59L60.178,66.608l-.8.778a.3.3,0,0,1-.507-.265Z" fill="#3f3d56"/>
      <path id="Path_243" data-name="Path 243" d="M65.564,55.177A7.061,7.061,0,0,1,68.6,56.55l.05.011.01-.05,10.7,1.677L78.592,43.95l8.113-4.444L84.788,63.574a2.847,2.847,0,0,1-3.54,1.992l-13.627-3.92.034-.168-.048-.013a7.062,7.062,0,0,1-3.335.083c-2.765-.56-4.718-2.44-4.362-4.2s2.887-2.732,5.653-2.172Z" fill="#ffb6b6"/>
      <path id="Path_244" data-name="Path 244" d="M72.883,32.882l9.142-2.546s4.8,3.53,5.381,7.349c.069.454.26,21.611.058,22.161-1.5,4.076-9.721-2.43-9.721-2.43Z" fill="#8a57dc"/>
      <path id="Path_245" data-name="Path 245" d="M33.227,70.908,32.28,70.1h0a1.02,1.02,0,0,0-.5-.232l-21.118-3.52a1.136,1.136,0,0,1-.4-2.094l7.534-4.52a1.131,1.131,0,0,1,.835-.134l26.776,6.049a1.136,1.136,0,0,1,.07,2.2l-11.2,3.293a1.132,1.132,0,0,1-1.06-.227Z" fill="#3f3d56"/>
      <path id="Path_246" data-name="Path 246" d="M23.058,44.657a7.061,7.061,0,0,1,2.716,1.936l.047.02.02-.047,10.178,3.717,10.867-17.6,6.008,3.723-12.6,20.205a2.847,2.847,0,0,1-3.859,1.269L23.823,51.4l.066-.158-.044-.022a7.062,7.062,0,0,1-3.288-.564c-2.6-1.084-4.157-3.308-3.466-4.965s3.361-2.122,5.967-1.037Z" fill="#ffb6b6"/>
      <path id="Path_247" data-name="Path 247" d="M58.542,35.864l-4.807-7.188s-5.72,1.132-8.076,4.193c-.295.383-10.411,15.055-10.476,15.695-.456,4.482,11.171,6.582,11.171,6.582L58.542,35.864Z" fill="#8a57dc"/>
      <path id="Path_248" data-name="Path 248" d="M32.7,71.124,8.5,67.778a2.067,2.067,0,0,1-1.7-1.479l-5.56-19.46a2.066,2.066,0,0,1,2.144-2.628L27.767,46.08a2.065,2.065,0,0,1,1.843,1.546l5.378,20.937A2.065,2.065,0,0,1,32.7,71.124Z" fill="#3f3d56"/>
      <path id="Path_249" data-name="Path 249" d="M27.309,31.265c.141.156.655,0,1.676-.326a2.742,2.742,0,0,0,.97-.4c.26-.226.328-.463.585-1.51a9.169,9.169,0,0,1,.713-2.466c.082-.137.288-.465.237-.506s-.275.3-.687.429-.583-.076-.926-.024c-.443.066-.707.488-1.121,1.169a14.5,14.5,0,0,0-.926,2.046c-.145.34-.263.6-.353.811q-1.512,1.411-3,2.856l.053-.081a2.231,2.231,0,0,0,.492-1.306,2.808,2.808,0,0,0-.638-1.423,10.329,10.329,0,0,0-1.267-1.559c-.614-.658-.921-.986-1.043-.965-.873.154-1.106,6.1-.008,7.16a1.932,1.932,0,0,0-.374.339,7,7,0,0,0-4.334-2.353,3,3,0,0,0-1.9.375c-.872.548-1.391,1.644-1.13,1.954.243.289.944-.367,2.319-.331a5.305,5.305,0,0,1,2.154.58c.933.433,1.275.86,1.963,1.152a3,3,0,0,0-.739.907l-.167.172a5.77,5.77,0,0,0-2.348-.761,3,3,0,0,0-1.9.375,2.839,2.839,0,0,0-1.15,1.446c-.089.018-.172.038-.247.06a3.7,3.7,0,0,0-1.8-1.558c-1.269-.551-2.918-.4-3.095.119a.28.28,0,0,0-.01.05q.209-1.684.564-3.344a.774.774,0,0,0,.031.1,3.727,3.727,0,0,0,2.314,1.934c.906.308,1.285.148,1.382.1a1.025,1.025,0,0,0,.587-.553c.181-.629-.926-2.489-1.623-1.865-2.242,2-2.55.381-2.653.108q.286-1.312.656-2.61l.012.016a3.387,3.387,0,0,0,2.54,1.031c.869.015,1.154-.229,1.225-.294a.932.932,0,0,0,.355-.641c-.018-.595-1.077-1.079-1.923-1.163a3.281,3.281,0,0,0-2.037.464q.291-.972.625-1.935a2.851,2.851,0,0,0,2.168-.153c.653-.292.78-.573.811-.646a.767.767,0,0,0,.041-.6c-.221-.437-1.179-.43-1.839-.2a2.851,2.851,0,0,0-.752.409q.591-1.579,1.285-3.135l-.463-.116a41.45,41.45,0,0,0-1.547,4.025,3.685,3.685,0,0,0-.374-1.167c-.533-1.013-1.673-1.773-2.058-1.526a.371.371,0,0,0-.139.225,3.541,3.541,0,0,0,.564,2.81c.488.767.864.875.962.9a1.089,1.089,0,0,0,.664,0q-.265.907-.488,1.822a3.542,3.542,0,0,0-.905-1.246c-.86-.755-2.2-1.057-2.468-.689a.371.371,0,0,0-.049.26,3.541,3.541,0,0,0,1.532,2.423c.73.542,1.12.508,1.22.5a1.385,1.385,0,0,0,.409-.1q-.239,1.112-.419,2.234c-.241-.837-1.059-1.88-1.832-1.548-1.371.589-2.982-.316-3.159.08a.417.417,0,0,0,.036.324,4.368,4.368,0,0,0,2.683,2.3c1.057.374,1.5.193,1.618.143a1.6,1.6,0,0,0,.509-.33q-.2,1.442-.307,2.9a3.931,3.931,0,0,0-1.844-1.62c-1.322-.595-3.051-.464-3.243.082a.47.47,0,0,0,.037.333,4.483,4.483,0,0,0,2.753,2.364c1.085.384,1.544.2,1.66.147a1.542,1.542,0,0,0,.578-.4q-.037.673-.056,1.348c0,.128-.005.256-.008.385a.379.379,0,0,0-.038.078.478.478,0,0,0,.032.331c0,.081,0,.163,0,.244A7.055,7.055,0,0,1,8.071,41.2c-.313-.424-.61-.113-.8.248a.857.857,0,0,0-.81.184c-1.506,1.407-3.2.661-3.22,1.08a.482.482,0,0,0,.14.322,4.694,4.694,0,0,0,3.483,1.518c1.2.051,1.606-.276,1.707-.364A2.3,2.3,0,0,0,8.77,44c.069.055.136.105.2.151q.04,1.208.144,2.413c-.057.005-.112.015-.152.019-.583.059-.78-.727-1.66-1.015a1.557,1.557,0,0,0-1.153,0,2.071,2.071,0,0,1-.692.323,2.737,2.737,0,0,0-.922.553c-.425.345-.638.517-.738.83a.913.913,0,0,0,0,.646c.057.128.188.317.692.507a3.222,3.222,0,0,0,2.214.092c.237-.08.056-.051.969-.507.718-.359,1.138-.53,1.2-.876.022-.122,0-.27.092-.323a.209.209,0,0,1,.175.007q.091.968.227,1.933H8.546a2.833,2.833,0,0,0-2.554,1.584l-3.073,6.2a2.865,2.865,0,0,0-.3,1.266v15.94a2.854,2.854,0,0,0,2.85,2.85h7.172a2.854,2.854,0,0,0,2.85-2.85V59.061a2.839,2.839,0,0,0-.2-1.041l-2.929-7.461a2.831,2.831,0,0,0-2.044-1.743q.442-.525.888-1.047a5.985,5.985,0,0,0,1.231.434c1.173.276,1.629.03,1.745-.038a1.291,1.291,0,0,0,.669-.764.727.727,0,0,0,.011-.142c1.2.977,1.828,1.458,2.286,1.3a1.455,1.455,0,0,0,.747-1l.429.058c1.646.22,2.475.322,2.792-.068.439-.539.022-1.58-.093-1.866a3.444,3.444,0,0,0-.872-1.233,4.2,4.2,0,0,0-2.582-1.267,2.892,2.892,0,0,0-.85.052,3.68,3.68,0,0,0-.31-.257,2.9,2.9,0,0,0-.651-.362q.522-.572,1.047-1.139l.157.072c1.148.533,1.4,1.055,2.5,1.33.5.125,1.068.266,1.208.054.249-.377-.809-1.929-2.445-2.979l.331-.35c.15.063.281.124.394.176,1.148.533,1.4,1.055,2.5,1.33.5.125,1.068.266,1.208.054.223-.336-.6-1.608-1.937-2.624a4.363,4.363,0,0,1,1.489-.23,5.305,5.305,0,0,1,2.154.58c1.148.533,1.4,1.055,2.5,1.33.5.125,1.068.266,1.208.054.371-.561-2.148-3.719-5.16-3.962a4.1,4.1,0,0,0-.634,0c-.026-.044-.055-.088-.085-.134,1.019.033,3.01-.259,4.7.931a13.534,13.534,0,0,0,3.026,1.813c.508.212.763.316.833.229.252-.311-1.841-2.874-4.785-4.137a4.393,4.393,0,0,0-2.4-.472c.079-.09.156-.183.23-.277q1.719-1.686,3.478-3.334c-.057.175-.055.269.007.337ZM12.6,45.258c-1.295-.419-2.863-.194-3.271.283q-.086-.634-.149-1.27a6.419,6.419,0,0,0,2.373.574c.5.066.919.122,1.275.156a2.891,2.891,0,0,0,.158.358l.021.038-.01.012c-.133-.058-.266-.109-.4-.151ZM9.158,39.58a.778.778,0,0,0,.009-.387q.06-.731.15-1.457a.6.6,0,0,0,.054.229,4.28,4.28,0,0,0,2.658,2.222,4.367,4.367,0,0,0,.642.169,2.151,2.151,0,0,0-.183.4,1.608,1.608,0,0,0-1.694-.347c-.18.076-.286.355-.379.689a2.271,2.271,0,0,0-1.362.353c0-.09,0-.179,0-.269q.021-.769.075-1.533a.682.682,0,0,0,.026-.071Zm-.1,2.636c.026.054.055.107.085.161-.027-.02-.055-.041-.083-.065C9.057,42.28,9.056,42.248,9.056,42.216Zm1.041,6.56q-.107-.014-.215-.02c-.167-.829-.321-1.657-.45-2.487a4.187,4.187,0,0,0,1.6,1.405q-.469.549-.933,1.1Zm5.465-6.233a9.089,9.089,0,0,0-1.677-.293,4.159,4.159,0,0,0-.508-.573c-.075-.073-.19-.216-.339-.385a4.865,4.865,0,0,1,1.779-.324,4.883,4.883,0,0,1,1.8.422q-.531.574-1.058,1.152Zm2.5-2.7a6.588,6.588,0,0,0-1.4-.644c.048,0,.1,0,.145,0a4.7,4.7,0,0,1,1.559.324l-.3.321Z" fill="#ccc"/>
    </g>
  </g>
</svg>
