<svg xmlns="http://www.w3.org/2000/svg" xmlns:xlink="http://www.w3.org/1999/xlink" width="292" height="292" viewBox="0 0 292 292">
  <defs>
    <clipPath id="clip-path">
      <rect id="Rectangle_1" data-name="Rectangle 1" width="292" height="292" transform="translate(69 186)" fill="#fff" stroke="#707070" stroke-width="1"/>
    </clipPath>
  </defs>
  <g id="Mask_Group_2" data-name="Mask Group 2" transform="translate(-69 -186)" clip-path="url(#clip-path)">
    <g id="undraw_healthy_habit_re_1s9k" transform="translate(69 198.6)">
      <g id="Group_1" data-name="Group 1">
        <path id="Path_42" data-name="Path 42" d="M168.16,91.273s-.119,5.187-9.6,12.768l-2.146,3.85,20.028,11.56a16.534,16.534,0,0,1,5.85,1.457c5.238,2.325,8.432,6.578,7.136,9.5s-6.594,3.4-11.832,1.079a17.89,17.89,0,0,1-3.118-1.769c-6.865-1.721-37.408-9.947-34.028-19.308,3.8-10.537,7.528-22.857,7.528-22.857l20.181,3.72h0Z" fill="#ffb6b6"/>
        <path id="Path_43" data-name="Path 43" d="M151.538,72.267a13.655,13.655,0,1,1,23.8,12.406L166.985,95.3,145.9,90.824l5.636-18.557h0Z" fill="#8a57dc"/>
        <path id="Path_44" data-name="Path 44" d="M195.043,111.613a58.074,58.074,0,0,0-19.111-3.309,1.279,1.279,0,0,0-1.477,1.041l-.721,4.167a1.28,1.28,0,0,0,1.041,1.477,24.587,24.587,0,0,0,7.9,3l-2.771,16a19.465,19.465,0,0,0-8.4-.125,1.279,1.279,0,0,0-1.477,1.041l-.722,4.167a1.279,1.279,0,0,0,1.041,1.477c5.421,1.953,12.015,2.856,19.11,3.309a1.279,1.279,0,0,0,1.477-1.041l.722-4.167a1.279,1.279,0,0,0-1.041-1.477c-2.737-.992-5.423-1.894-7.981-2.561l2.808-16.217a43.9,43.9,0,0,0,8.441-.1,1.279,1.279,0,0,0,1.477-1.041l.722-4.167a1.28,1.28,0,0,0-1.041-1.477Z" fill="#2f2e41"/>
      </g>
      <path id="Path_45" data-name="Path 45" d="M109.96,249.324l-18.676-19.1,13.5-19.283,3.659.24A3.537,3.537,0,0,0,112.2,207.9l.688-9.865a3.537,3.537,0,0,0-3.528-3.783h-34.3a3.532,3.532,0,0,0,.189-2.137L54.78,101.535a3.537,3.537,0,0,0-3.82-2.737l-8.085.851a3.537,3.537,0,0,0-3.08,4.294L61.723,201.36a3.537,3.537,0,0,0,4.64,2.554,3.452,3.452,0,0,0-.189.879l-2.907.233L13.78,260.1H28.945l38.312-42.7,36.716,42.7h11.973l.4-7.184-6.385-3.592Zm-35.9-40.4,20.084,1.317L86.278,225.1l-11.438-11.7-.779-4.48Z" fill="#f2f2f2"/>
      <path id="Path_46" data-name="Path 46" d="M0,260.218a.474.474,0,0,0,.475.475h291.05a.475.475,0,0,0,0-.95H.475A.474.474,0,0,0,0,260.218Z" fill="#3f3d56"/>
      <circle id="Ellipse_4" data-name="Ellipse 4" cx="16.363" cy="16.363" r="16.363" transform="translate(157.54 8.79)" fill="#ffb6b6"/>
      <path id="Path_47" data-name="Path 47" d="M142.685,233.759v16.363l-12.372.4.516-16.762Z" fill="#ffb6b6"/>
      <path id="Path_48" data-name="Path 48" d="M139.059,248.038l-.044.067-.078.018c-.3.066-7.336,1.592-9.385-1.276-.162-.227-.3-.321-.424-.284-1.339.429-2.406,10.655-2.406,14.535,0,2.287,5.1,2.875,11.561,3.621,3.017.348,6.437.743,9.826,1.371,7.367,1.364,13.439-2.012,16.4-4.147a2.131,2.131,0,0,0,.177-3.314c-3.908-3.521-16.832-15.06-19.065-15.7a1.784,1.784,0,0,0-.49-.067C142.542,242.864,139.1,247.983,139.059,248.038Z" fill="#2f2e41"/>
      <path id="Path_49" data-name="Path 49" d="M165.832,233.759v16.363l-12.372.4.516-16.762Z" fill="#ffb6b6"/>
      <path id="Path_50" data-name="Path 50" d="M170.82,116.627l6.585,4.989,1.2,56.271-11.174,61.459-14.567.6-.4-58.666L133.705,127.8,137.5,115.23Z" fill="#2f2e41"/>
      <path id="Path_51" data-name="Path 51" d="M140.091,126.205l-6.385,1.6-4.589,111.545,16.562-1.4,10.975-78.82Z" fill="#2f2e41"/>
      <path id="Path_52" data-name="Path 52" d="M171.183,266.481c-3.375-.625-6.788-1.019-9.8-1.366-6.917-.8-11.915-1.375-11.915-4.018,0-2,.773-14.3,2.684-14.915.21-.067.53-.046.871.431,1.788,2.5,8.123,1.293,8.9,1.135.478-.7,4.192-5.994,6.959-5.2,2.135.61,12.713,9.929,18.827,15.43a2.946,2.946,0,0,1,.975,2.4,2.914,2.914,0,0,1-1.264,2.227,23.059,23.059,0,0,1-12.754,4.2,19.071,19.071,0,0,1-3.481-.32Z" fill="#2f2e41"/>
      <path id="Path_53" data-name="Path 53" d="M156,45.549l3.576-12.011,15.561,3.943-.631,13.033Z" fill="#ffb6b6"/>
      <path id="Path_54" data-name="Path 54" d="M137.46,115.426l-.174-.032,2.741-43.253a43.55,43.55,0,0,1,9.359-24.385l6.815-8.609L177.9,51.2l.082.046,4.806,25.634.009.047-5.2,44.744-.051.172-40.085-6.419Z" fill="#8a57dc"/>
      <path id="Path_55" data-name="Path 55" d="M159.718,33.912l1.4.325s2.413-9.44,4-7.48,5.656,2.559,5.656,2.559l1.4-3.085s7.566-.293,8.822-3.752c0,0,16.069.766,11.571-7.774s-5.944-6.716-5.944-6.716-4.4-2.608-5.381-5.222-10.68-4.894-16.394.636c-20.938,20.261-5.132,30.51-5.132,30.51h0Z" fill="#3f3d56"/>
      <g id="Group_3" data-name="Group 3">
        <g id="Group_2" data-name="Group 2">
          <rect id="Rectangle_10" data-name="Rectangle 10" width="2.794" height="17.56" transform="translate(194.948 95.422) rotate(-10.318)" fill="#3f3d56"/>
          <path id="Path_56" data-name="Path 56" d="M190.105,115.167c4.293-2.954,11.42-3.445,19.081-3.474a1.279,1.279,0,0,1,1.486,1.028l.758,4.161a1.279,1.279,0,0,1-1.028,1.486c-6.817,2.018-13.319,3.441-19.081,3.474a1.279,1.279,0,0,1-1.486-1.028l-.758-4.161a1.279,1.279,0,0,1,1.028-1.486h0Z" fill="#3f3d56"/>
          <path id="Path_57" data-name="Path 57" d="M185.459,89.645a58.071,58.071,0,0,1,19.081-3.474,1.279,1.279,0,0,1,1.486,1.028l.758,4.161a1.279,1.279,0,0,1-1.028,1.486c-5.9,2.823-12.032,4.787-19.081,3.474a1.279,1.279,0,0,1-1.486-1.028l-.758-4.161a1.279,1.279,0,0,1,1.028-1.486Z" fill="#3f3d56"/>
        </g>
        <path id="Path_58" data-name="Path 58" d="M172.3,76.333s1.674,4.911-4.615,15.292l-.689,4.354,22.784,3.957a16.533,16.533,0,0,1,5.994-.647c5.718.38,10.182,3.272,9.97,6.461s-5.019,5.466-10.737,5.087a17.891,17.891,0,0,1-3.537-.587c-7.038.748-38.545,3.542-38.6-6.41-.056-11.2-.8-24.051-.8-24.051L172.3,76.333h0Z" fill="#ffb6b6"/>
        <path id="Path_59" data-name="Path 59" d="M150.147,64.213a13.655,13.655,0,1,1,26.618,3.451l-4.183,12.858-21.336,3.054Z" fill="#8a57dc"/>
      </g>
      <g id="Group_4" data-name="Group 4">
        <rect id="Rectangle_11" data-name="Rectangle 11" width="17.56" height="2.794" transform="matrix(0.041, -0.999, 0.999, 0.041, 62.241, 251.966)" fill="#3f3d56"/>
        <path id="Path_60" data-name="Path 60" d="M53.906,252.619c4.837-1.938,11.9-.852,19.378.8a1.279,1.279,0,0,1,1.223,1.329l-.175,4.226A1.279,1.279,0,0,1,73,260.2c-7.094.471-13.75.43-19.378-.8a1.279,1.279,0,0,1-1.223-1.329l.175-4.226A1.279,1.279,0,0,1,53.906,252.619Z" fill="#3f3d56"/>
        <path id="Path_61" data-name="Path 61" d="M54.982,226.7a58.071,58.071,0,0,1,19.378.8,1.279,1.279,0,0,1,1.223,1.329l-.175,4.226a1.279,1.279,0,0,1-1.329,1.223c-6.373,1.458-12.79,2.026-19.378-.8a1.279,1.279,0,0,1-1.223-1.329l.175-4.226a1.279,1.279,0,0,1,1.329-1.223Z" fill="#3f3d56"/>
      </g>
    </g>
  </g>
</svg>
