<svg xmlns="http://www.w3.org/2000/svg" xmlns:xlink="http://www.w3.org/1999/xlink" width="292" height="292" viewBox="0 0 292 292">
  <defs>
    <clipPath id="clip-path">
      <rect id="Rectangle_1" data-name="Rectangle 1" width="292" height="292" transform="translate(69 186)" fill="#fff" stroke="#707070" stroke-width="1"/>
    </clipPath>
  </defs>
  <g id="Mask_Group_3" data-name="Mask Group 3" transform="translate(-69 -186)" clip-path="url(#clip-path)">
    <g id="undraw_meditation_re_gll0" transform="translate(69 221.667)">
      <path id="Path_164" data-name="Path 164" d="M205.4,235.547s3.716-6.1,8.488-2.492,13.608,9.688,13.608,9.688,1.81,3.891-2.874,2.429-19.976-3.813-19.976-3.813Z" transform="translate(-68.181 -50.303)" fill="#feb8b8"/>
      <path id="Path_62" data-name="Path 62" d="M101.541,196.824c1.184-9.523,7.086-18.906,16.169-22.006a44.215,44.215,0,0,0,0,30.357c1.4,3.775,3.341,7.828,2.028,11.633a9.884,9.884,0,0,1-5.048,5.311,29.354,29.354,0,0,1-7.16,2.2l-.482.4C103.163,215.945,100.356,206.348,101.541,196.824Z" transform="translate(-68.181 -50.303)" fill="#f0f0f0"/>
      <path id="Path_63" data-name="Path 63" d="M117.8,175a37.792,37.792,0,0,0-9.4,21.269,16.274,16.274,0,0,0,.185,5.1,9.334,9.334,0,0,0,2.322,4.329,19.319,19.319,0,0,1,3,3.588,5.715,5.715,0,0,1,.279,4.666,14.85,14.85,0,0,1-3.29,4.908c-1.473,1.629-3.029,3.3-3.655,5.456-.076.262-.477.129-.4-.133,1.089-3.757,4.736-5.891,6.475-9.274a5.788,5.788,0,0,0,.391-5.079,14.989,14.989,0,0,0-2.975-3.7,9.961,9.961,0,0,1-2.428-4.149,15.046,15.046,0,0,1-.38-5.07,36.664,36.664,0,0,1,2.678-11.142,38.462,38.462,0,0,1,6.916-11.083c.181-.2.46.116.28.317Z" transform="translate(-68.181 -50.303)" fill="#fff"/>
      <path id="Path_64" data-name="Path 64" d="M108.518,193.709a5.67,5.67,0,0,1-4.316-5.94.212.212,0,0,1,.423.021,5.25,5.25,0,0,0,4.026,5.517c.265.063.131.464-.133.4Z" transform="translate(-68.181 -50.303)" fill="#fff"/>
      <path id="Path_65" data-name="Path 65" d="M110.3,205.18a10.929,10.929,0,0,0,4.88-6.294c.077-.261.478-.128.4.133a11.367,11.367,0,0,1-5.092,6.539c-.235.139-.423-.239-.19-.378Z" transform="translate(-68.181 -50.303)" fill="#fff"/>
      <path id="Path_66" data-name="Path 66" d="M112.652,182.1a3.209,3.209,0,0,0,3.042-.154c.233-.142.421.237.19.378a3.6,3.6,0,0,1-3.364.178.219.219,0,0,1-.135-.267.213.213,0,0,1,.267-.135Z" transform="translate(-68.181 -50.303)" fill="#fff"/>
      <path id="Path_67" data-name="Path 67" d="M145.394,191.829c-.143.093-.286.186-.428.282a42.265,42.265,0,0,0-5.4,4.219c-.132.118-.264.239-.393.361a44.559,44.559,0,0,0-9.677,13.247,43.271,43.271,0,0,0-2.37,6.133c-.875,2.9-1.592,6.118-3.323,8.492a7.424,7.424,0,0,1-.578.714H107.573c-.036-.018-.071-.032-.107-.05l-.625.029c.025-.111.054-.225.079-.336.014-.064.032-.128.046-.193.011-.043.021-.086.029-.125,0-.014.007-.029.011-.039.007-.039.018-.075.025-.111q.236-.958.485-1.917s0,0,0-.007a63.627,63.627,0,0,1,5.355-14.057c.071-.132.143-.268.221-.4a41.292,41.292,0,0,1,3.709-5.626,36.5,36.5,0,0,1,2.431-2.781,30.355,30.355,0,0,1,7.6-5.69c5.612-2.963,12.108-4.1,18.105-2.288C145.09,191.732,145.24,191.779,145.394,191.829Z" transform="translate(-68.181 -50.303)" fill="#f0f0f0"/>
      <path id="Path_68" data-name="Path 68" d="M145.358,192.027a37.792,37.792,0,0,0-20.307,11.326,16.275,16.275,0,0,0-2.92,4.18,9.334,9.334,0,0,0-.753,4.855,19.319,19.319,0,0,1,.234,4.67,5.715,5.715,0,0,1-2.586,3.894,14.85,14.85,0,0,1-5.582,1.938c-2.157.414-4.4.809-6.2,2.156-.218.163-.459-.185-.241-.348,3.132-2.344,7.328-1.852,10.754-3.506a5.788,5.788,0,0,0,3.37-3.819,14.988,14.988,0,0,0-.147-4.746,9.96,9.96,0,0,1,.559-4.774,15.046,15.046,0,0,1,2.749-4.277,36.666,36.666,0,0,1,8.846-7.284,38.463,38.463,0,0,1,12.195-4.685c.266-.053.3.369.032.422Z" transform="translate(-68.181 -50.303)" fill="#fff"/>
      <path id="Path_69" data-name="Path 69" d="M126.683,201.378a5.67,5.67,0,0,1,.13-7.341c.181-.2.505.067.325.271a5.25,5.25,0,0,0-.107,6.829c.174.21-.175.449-.348.241Z" transform="translate(-68.181 -50.303)" fill="#fff"/>
      <path id="Path_70" data-name="Path 70" d="M121.2,211.613a10.928,10.928,0,0,0,7.686-2.087c.219-.162.459.185.241.348a11.367,11.367,0,0,1-8,2.156c-.271-.03-.194-.446.076-.416Z" transform="translate(-68.181 -50.303)" fill="#fff"/>
      <path id="Path_71" data-name="Path 71" d="M136.971,194.6a3.21,3.21,0,0,0,2.521,1.708c.271.027.194.443-.076.416a3.6,3.6,0,0,1-2.794-1.883.219.219,0,0,1,.053-.294.213.213,0,0,1,.294.053Z" transform="translate(-68.181 -50.303)" fill="#fff"/>
      <path id="Path_72" data-name="Path 72" d="M227.726,259.942c.459-3.691,2.746-7.327,6.266-8.528a17.136,17.136,0,0,0,0,11.765c.541,1.463,1.295,3.034.786,4.508a3.83,3.83,0,0,1-1.957,2.058,11.375,11.375,0,0,1-2.775.853l-.187.154C228.355,267.352,227.267,263.632,227.726,259.942Z" transform="translate(-68.181 -50.303)" fill="#f0f0f0"/>
      <path id="Path_73" data-name="Path 73" d="M234.027,251.483a14.646,14.646,0,0,0-3.641,8.243,6.307,6.307,0,0,0,.072,1.975,3.617,3.617,0,0,0,.9,1.678,7.49,7.49,0,0,1,1.162,1.391,2.215,2.215,0,0,1,.108,1.808,5.755,5.755,0,0,1-1.275,1.9,5.651,5.651,0,0,0-1.416,2.115c-.029.1-.185.05-.156-.051.422-1.456,1.835-2.283,2.509-3.594a2.243,2.243,0,0,0,.152-1.968,5.81,5.81,0,0,0-1.153-1.434,3.86,3.86,0,0,1-.941-1.608,5.831,5.831,0,0,1-.147-1.965,14.21,14.21,0,0,1,1.038-4.318,14.907,14.907,0,0,1,2.68-4.3c.07-.078.178.045.108.123Z" transform="translate(-68.181 -50.303)" fill="#fff"/>
      <path id="Path_74" data-name="Path 74" d="M230.43,258.734a2.2,2.2,0,0,1-1.673-2.3c.008-.105.172-.1.164.008a2.035,2.035,0,0,0,1.56,2.138c.1.024.051.18-.051.156Z" transform="translate(-68.181 -50.303)" fill="#fff"/>
      <path id="Path_75" data-name="Path 75" d="M231.122,263.18a4.235,4.235,0,0,0,1.891-2.439c.03-.1.185-.05.156.051a4.405,4.405,0,0,1-1.973,2.534c-.091.054-.164-.093-.074-.146Z" transform="translate(-68.181 -50.303)" fill="#fff"/>
      <path id="Path_76" data-name="Path 76" d="M232.033,254.237a1.244,1.244,0,0,0,1.179-.06c.09-.055.163.092.074.146a1.394,1.394,0,0,1-1.3.069.085.085,0,0,1-.052-.1.082.082,0,0,1,.1-.052Z" transform="translate(-68.181 -50.303)" fill="#fff"/>
      <path id="Path_77" data-name="Path 77" d="M244.721,258.006l-.166.109a16.384,16.384,0,0,0-2.094,1.635c-.051.046-.1.093-.152.14a17.27,17.27,0,0,0-3.75,5.134,16.776,16.776,0,0,0-.919,2.377,10.917,10.917,0,0,1-1.288,3.291,2.871,2.871,0,0,1-.224.277h-6.063l-.041-.019-.242.011c.01-.043.021-.087.03-.13.006-.025.012-.05.018-.075s.008-.033.011-.048l0-.015c0-.015.007-.029.01-.043q.091-.371.188-.743v0a24.657,24.657,0,0,1,2.075-5.448c.028-.051.055-.1.086-.155a16,16,0,0,1,1.437-2.18,14.143,14.143,0,0,1,.942-1.078,11.765,11.765,0,0,1,2.944-2.205,9.341,9.341,0,0,1,7.017-.887Z" transform="translate(-68.181 -50.303)" fill="#f0f0f0"/>
      <path id="Path_78" data-name="Path 78" d="M244.708,258.083a14.647,14.647,0,0,0-7.87,4.389,6.307,6.307,0,0,0-1.132,1.62,3.617,3.617,0,0,0-.292,1.881,7.487,7.487,0,0,1,.091,1.81,2.215,2.215,0,0,1-1,1.509,5.755,5.755,0,0,1-2.163.751,5.65,5.65,0,0,0-2.4.836c-.085.063-.178-.072-.093-.135,1.214-.908,2.84-.718,4.168-1.359a2.243,2.243,0,0,0,1.306-1.48,5.809,5.809,0,0,0-.057-1.839,3.86,3.86,0,0,1,.217-1.85,5.831,5.831,0,0,1,1.065-1.658,14.209,14.209,0,0,1,3.428-2.823,14.907,14.907,0,0,1,4.726-1.816c.1-.02.115.143.013.164Z" transform="translate(-68.181 -50.303)" fill="#fff"/>
      <path id="Path_79" data-name="Path 79" d="M237.47,261.707a2.2,2.2,0,0,1,.05-2.845c.07-.079.2.026.126.105a2.035,2.035,0,0,0-.041,2.647c.067.081-.068.174-.135.093Z" transform="translate(-68.181 -50.303)" fill="#fff"/>
      <path id="Path_80" data-name="Path 80" d="M235.346,265.673a4.235,4.235,0,0,0,2.979-.809c.085-.063.178.072.093.135a4.405,4.405,0,0,1-3.1.835c-.105-.012-.075-.173.029-.161Z" transform="translate(-68.181 -50.303)" fill="#fff"/>
      <path id="Path_81" data-name="Path 81" d="M241.457,259.08a1.244,1.244,0,0,0,.977.662c.105.01.075.172-.029.161a1.394,1.394,0,0,1-1.083-.73.085.085,0,0,1,.021-.114.082.082,0,0,1,.114.021Z" transform="translate(-68.181 -50.303)" fill="#fff"/>
      <path id="Path_82" data-name="Path 82" d="M331.9,181.544c-1.82-14.638-10.892-29.06-24.852-33.824a67.961,67.961,0,0,1,0,46.66c-2.145,5.8-5.135,12.033-3.117,17.881,1.255,3.639,4.327,6.423,7.76,8.164a45.12,45.12,0,0,0,11.006,3.383l.74.612C329.411,210.934,333.725,196.182,331.9,181.544Z" transform="translate(-68.181 -50.303)" fill="#f0f0f0"/>
      <path id="Path_83" data-name="Path 83" d="M306.914,148a58.088,58.088,0,0,1,14.441,32.692,25.015,25.015,0,0,1-.285,7.832,14.347,14.347,0,0,1-3.568,6.655c-1.608,1.767-3.458,3.388-4.609,5.516a8.785,8.785,0,0,0-.429,7.172,22.825,22.825,0,0,0,5.057,7.544c2.264,2.5,4.655,5.068,5.617,8.387.117.4.734.2.617-.2-1.674-5.774-7.28-9.054-9.953-14.255a8.9,8.9,0,0,1-.6-7.806c1.023-2.24,2.929-3.914,4.573-5.689a15.309,15.309,0,0,0,3.731-6.377,23.126,23.126,0,0,0,.585-7.793,56.356,56.356,0,0,0-4.116-17.126,59.118,59.118,0,0,0-10.63-17.036c-.278-.311-.706.178-.43.488Z" transform="translate(-68.181 -50.303)" fill="#fff"/>
      <path id="Path_84" data-name="Path 84" d="M321.18,176.755a8.715,8.715,0,0,0,6.634-9.129.325.325,0,0,0-.649.032,8.07,8.07,0,0,1-6.188,8.48c-.407.1-.2.714.2.617Z" transform="translate(-68.181 -50.303)" fill="#fff"/>
      <path id="Path_85" data-name="Path 85" d="M318.436,194.388a16.8,16.8,0,0,1-7.5-9.674c-.118-.4-.735-.2-.617.2a17.472,17.472,0,0,0,7.826,10.051C318.5,195.183,318.794,194.6,318.436,194.388Z" transform="translate(-68.181 -50.303)" fill="#fff"/>
      <path id="Path_86" data-name="Path 86" d="M314.826,158.918a4.933,4.933,0,0,1-4.675-.237c-.358-.218-.648.364-.292.581a5.528,5.528,0,0,0,5.171.274.336.336,0,0,0,.207-.411.327.327,0,0,0-.411-.207Z" transform="translate(-68.181 -50.303)" fill="#fff"/>
      <path id="Path_87" data-name="Path 87" d="M264.5,173.865c.219.143.439.285.659.433a64.97,64.97,0,0,1,8.307,6.485c.2.181.406.368.6.554A68.49,68.49,0,0,1,288.945,201.7a66.511,66.511,0,0,1,3.643,9.426c1.344,4.461,2.447,9.4,5.108,13.053a11.416,11.416,0,0,0,.889,1.1h24.049c.055-.027.11-.049.165-.077l.96.044c-.039-.17-.082-.346-.121-.516-.022-.1-.049-.2-.071-.3-.016-.066-.033-.132-.044-.192-.005-.022-.011-.044-.016-.06-.011-.06-.028-.115-.039-.17q-.362-1.473-.746-2.946c0-.005,0-.005-.005-.011a97.8,97.8,0,0,0-8.23-21.607c-.11-.2-.219-.411-.34-.615a63.465,63.465,0,0,0-5.7-8.647,56.1,56.1,0,0,0-3.737-4.274,46.657,46.657,0,0,0-11.676-8.746c-8.625-4.554-18.611-6.3-27.829-3.517C264.967,173.717,264.737,173.789,264.5,173.865Z" transform="translate(-68.181 -50.303)" fill="#f0f0f0"/>
      <path id="Path_88" data-name="Path 88" d="M264.555,174.171a58.088,58.088,0,0,1,31.213,17.409A25.014,25.014,0,0,1,300.257,198a14.347,14.347,0,0,1,1.157,7.462c-.22,2.379-.721,4.787-.359,7.179a8.785,8.785,0,0,0,3.975,5.984,22.824,22.824,0,0,0,8.58,2.979c3.315.636,6.768,1.244,9.535,3.314.335.251.7-.284.37-.534-4.813-3.6-11.264-2.846-16.529-5.39a8.9,8.9,0,0,1-5.18-5.87c-.532-2.4-.018-4.888.226-7.3a15.31,15.31,0,0,0-.86-7.338,23.126,23.126,0,0,0-4.225-6.574,56.355,56.355,0,0,0-13.6-11.2,59.118,59.118,0,0,0-18.744-7.2c-.409-.081-.457.568-.05.648Z" transform="translate(-68.181 -50.303)" fill="#fff"/>
      <path id="Path_89" data-name="Path 89" d="M293.26,188.543a8.715,8.715,0,0,0-.2-11.283c-.277-.313-.777.1-.5.417a8.07,8.07,0,0,1,.164,10.5C292.459,188.5,292.995,188.864,293.26,188.543Z" transform="translate(-68.181 -50.303)" fill="#fff"/>
      <path id="Path_90" data-name="Path 90" d="M301.685,204.274a16.8,16.8,0,0,1-11.814-3.208c-.336-.25-.706.285-.37.534a17.472,17.472,0,0,0,12.3,3.313C302.217,204.868,302.1,204.228,301.685,204.274Z" transform="translate(-68.181 -50.303)" fill="#fff"/>
      <path id="Path_91" data-name="Path 91" d="M277.447,178.127a4.933,4.933,0,0,1-3.876,2.625c-.417.041-.3.68.116.64a5.528,5.528,0,0,0,4.294-2.895.336.336,0,0,0-.082-.452.327.327,0,0,0-.452.082Z" transform="translate(-68.181 -50.303)" fill="#fff"/>
      <path id="Path_92" data-name="Path 92" d="M359.942,225.634H68.538a.357.357,0,1,1,0-.714H359.824a.357.357,0,0,1,.357.357C360.181,225.474,360.138,225.634,359.942,225.634Z" transform="translate(-68.181 -50.303)" fill="#cacaca"/>
      <path id="Path_93" data-name="Path 93" d="M170.391,257.047H106.02a.357.357,0,1,1,0-.714h64.254a.357.357,0,0,1,.357.357C170.631,256.887,170.588,257.047,170.391,257.047Z" transform="translate(-68.181 -50.303)" fill="#cacaca"/>
      <path id="Path_94" data-name="Path 94" d="M271.413,270.969H207.042a.357.357,0,1,1,0-.714H271.3a.357.357,0,0,1,.357.357C271.653,270.809,271.61,270.969,271.413,270.969Z" transform="translate(-68.181 -50.303)" fill="#cacaca"/>
      <path id="Path_95" data-name="Path 95" d="M332.1,256.69H267.726a.357.357,0,0,1,0-.714H331.98a.357.357,0,0,1,.357.357C332.337,256.53,332.294,256.69,332.1,256.69Z" transform="translate(-68.181 -50.303)" fill="#cacaca"/>
      <path id="Path_161" data-name="Path 161" d="M187.143,243.125a36.671,36.671,0,0,1-10.568-1.289c-3.457-1.077-5.628-2.817-6.453-5.178a6.1,6.1,0,0,1,.956-6.044c5.114-6.664,22.863-8.544,25.244-8.766l4.831-9.148c.309-2.183-1.153-3.835,1.373-3.876l29.891-.406c2.482-.052,1.777,1.485,2.2,3.613l4.554,8.13-19.6,8.272,2.963,7.221-.193.112C216.608,239.092,200.111,243.124,187.143,243.125Z" transform="translate(-68.181 -50.303)" fill="#2f2e41"/>
      <path id="Path_162" data-name="Path 162" d="M236.46,220.506s27.372-3.132,25.587,9.4-22.612,21.405-54.15,0l3.57-6.265s11.752-.585,18.893-3.717Z" transform="translate(-68.181 -50.303)" fill="#2f2e41"/>
      <path id="Path_166" data-name="Path 166" d="M197.708,163.741s-5.2-.946-6.621,7.094-3.692,27.085-3.692,27.085l-7.057,24.464a4.966,4.966,0,1,0,7.073,2.921l9.443-25.965,1.8-22.356V165.272a1.711,1.711,0,0,0-.946-1.531Z" transform="translate(-68.181 -50.303)" fill="#feb8b8"/>
      <path id="Path_166-2" data-name="Path 166" d="M234.327,163.741s5.2-.946,6.621,7.094,3.692,27.085,3.692,27.085l7.057,24.464a4.966,4.966,0,1,1-7.073,2.921l-9.443-25.965-1.8-22.356V165.272a1.711,1.711,0,0,1,.946-1.531Z" transform="translate(-68.181 -50.303)" fill="#feb8b8"/>
      <path id="Path_96" data-name="Path 96" d="M233.931,157.1l-9.841-3.681-19.074-.246-8.21,3.927,2.306,13.253s-4.656,7.884.47,15.768l1.15,28.094s18.39,10.664,33.912-2.142l-3.508-26.121s5.868-12.119,1.32-16.621Z" transform="translate(-68.181 -50.303)" fill="#8a57dc"/>
      <path id="Path_97" data-name="Path 97" d="M229.923,161.214l4.008-4.118s8.747,4.6,8.567,19.99l-11.034-3.4Z" transform="translate(-68.181 -50.303)" fill="#8a57dc"/>
      <path id="Path_98" data-name="Path 98" d="M201.259,161.214,197,156.956s-7.514,5.812-7.334,21.2l10.051-4.472Z" transform="translate(-68.181 -50.303)" fill="#8a57dc"/>
      <path id="Path_163" data-name="Path 163" d="M229.018,232.5s-3.065-6.449-8.184-3.358-14.538,8.227-14.538,8.227-2.2,3.682,2.607,2.714,20.263-1.724,20.263-1.724Z" transform="translate(-68.181 -50.303)" fill="#feb8b8"/>
      <path id="Path_99" data-name="Path 99" d="M220.5,117.216c.043-.042.089-.079.131-.122,2.739-2.739,3.294-6.625,1.24-8.679-1.941-1.941-5.517-1.55-8.216.811-2.314-2.2-5.417-2.818-7.426-1.3-2.316,1.754-2.3,5.679.04,8.767.16.211.328.411.5.6a16.173,16.173,0,0,0-10.614,15.188v15.392a3.437,3.437,0,0,0,3.437,3.437h28.449A3.322,3.322,0,0,0,231.366,148V132.488A16.169,16.169,0,0,0,220.5,117.217Z" transform="translate(-68.181 -50.303)" fill="#2f2e41"/>
      <circle id="Ellipse_5" data-name="Ellipse 5" cx="13.5" cy="13.5" r="13.5" transform="translate(126.94 85.979) rotate(-45)" fill="#ffb6b6"/>
      <path id="Path_100" data-name="Path 100" d="M200.026,127.791a18.361,18.361,0,0,0,10.493,3.243,11.251,11.251,0,0,1-4.46,1.835,37.023,37.023,0,0,0,15.123.085,9.788,9.788,0,0,0,3.166-1.087,4.006,4.006,0,0,0,1.954-2.613c.332-1.9-1.145-3.618-2.68-4.778a19.769,19.769,0,0,0-16.613-3.32,9.1,9.1,0,0,0-4.92,2.78,4.482,4.482,0,0,0-.414,5.322Z" transform="translate(-68.181 -50.303)" fill="#2f2e41"/>
      <path id="Path_101" data-name="Path 101" d="M71.579,58.961Z" fill="#f2f2f2"/>
      <path id="Path_102" data-name="Path 102" d="M127.82,100.852l.425-.574,11.333,8.407c-.616-1.877-2.8-7.828-6.37-10.2-4.269-2.836-7.273-1.954-8.91.509s-1.286,5.574,2.983,8.411c3.619,2.4,10.066,2.07,11.947,1.913Z" transform="translate(-68.181 -50.303)" fill="#f2f2f2"/>
      <path id="Path_103" data-name="Path 103" d="M220.553,15.524Z" fill="#f2f2f2"/>
      <path id="Path_104" data-name="Path 104" d="M298.342,54.826l.526.483-9.54,10.4c1.931-.417,8.076-1.967,10.809-5.274,3.265-3.951,2.7-7.03.42-8.914s-5.41-1.859-8.675,2.092c-2.768,3.349-3.106,9.8-3.145,11.683Z" transform="translate(-68.181 -50.303)" fill="#f2f2f2"/>
      <path id="Path_105" data-name="Path 105" d="M66.7,126.541Z" fill="#f2f2f2"/>
      <path id="Path_106" data-name="Path 106" d="M144.489,165.844l.526.483-9.54,10.4c1.931-.417,8.076-1.967,10.809-5.274,3.265-3.951,2.7-7.03.42-8.914s-5.41-1.859-8.675,2.092c-2.768,3.349-3.106,9.8-3.145,11.683Z" transform="translate(-68.181 -50.303)" fill="#f2f2f2"/>
      <path id="Path_107" data-name="Path 107" d="M149.971,29.256Z" fill="#f2f2f2"/>
      <path id="Path_108" data-name="Path 108" d="M225.156,66.741l.618.358-7.067,12.214c1.8-.825,7.46-3.666,9.414-7.486,2.334-4.564,1.117-7.448-1.516-8.794s-5.684-.646-8.018,3.918c-1.979,3.868-.915,10.236-.545,12.087Z" transform="translate(-68.181 -50.303)" fill="#f2f2f2"/>
      <path id="Path_109" data-name="Path 109" d="M216.01,105.647Z" fill="#f2f2f2"/>
      <path id="Path_110" data-name="Path 110" d="M291.195,143.132l.618.358L284.746,155.7c1.8-.825,7.46-3.666,9.414-7.486,2.334-4.564,1.117-7.448-1.516-8.794s-5.684-.646-8.018,3.918c-1.979,3.868-.915,10.236-.545,12.087Z" transform="translate(-68.181 -50.303)" fill="#f2f2f2"/>
    </g>
  </g>
</svg>
