<svg xmlns="http://www.w3.org/2000/svg" xmlns:xlink="http://www.w3.org/1999/xlink" width="292" height="292" viewBox="0 0 292 292">
  <defs>
    <clipPath id="clip-path">
      <rect id="Rectangle_1" data-name="Rectangle 1" width="292" height="292" transform="translate(69 186)" fill="#fff" stroke="#707070" stroke-width="1"/>
    </clipPath>
  </defs>
  <g id="Mask_Group_1" data-name="Mask Group 1" transform="translate(-69 -186)" clip-path="url(#clip-path)">
    <g id="undraw_indoor_bike_pwa4" transform="translate(69 208.64)">
      <path id="Path_1" data-name="Path 1" d="M354.156,263.132s-42.572-19.6-27.617-33.189S354.156,263.132,354.156,263.132Z" transform="translate(-81.443 -47.223)" fill="#e6e6e6"/>
      <path id="Path_2" data-name="Path 2" d="M353.415,267.705s-19.568-64.293,9.246-61.218S353.415,267.705,353.415,267.705Z" transform="translate(-81.443 -47.223)" fill="#e6e6e6"/>
      <path id="Path_3" data-name="Path 3" d="M339.148,262l.821,10.755.013.186a49.41,49.41,0,0,0,.254,5.029c1.115,10.97,5.905,15.969,11.5,15.969s10.181-5,11.3-15.969a49.42,49.42,0,0,0,.254-5.029l.007-.15,0-.036L364.125,262Z" transform="translate(-81.443 -47.223)" fill="#e6e6e6"/>
      <path id="Path_4" data-name="Path 4" d="M363.3,272.758l0,.036-.007.15a49.419,49.419,0,0,1-.254,5.029h-22.8a49.419,49.419,0,0,1-.254-5.029l-.013-.186Z" transform="translate(-81.443 -47.223)" fill="#fff"/>
      <path id="Path_5" data-name="Path 5" d="M113.592,272.492s-15.83-7.287-10.269-12.341S113.592,272.492,113.592,272.492Z" transform="translate(-81.443 -47.223)" fill="#e6e6e6"/>
      <path id="Path_6" data-name="Path 6" d="M103.109,271.72l.571,7.483.009.129a34.381,34.381,0,0,0,.177,3.5c.776,7.633,4.109,11.111,8,11.111s7.084-3.478,7.859-11.111a34.384,34.384,0,0,0,.177-3.5l0-.1,0-.025.574-7.483Z" transform="translate(-81.443 -47.223)" fill="#e6e6e6"/>
      <path id="Path_7" data-name="Path 7" d="M279.851,163.343h0a3.862,3.862,0,0,0-1.022-6.857l-8.863-2.827-4.87,4.22,10.751,5.7a3.862,3.862,0,0,0,4-.235Z" transform="translate(-81.443 -47.223)" fill="#ffb9b9"/>
      <path id="Path_8" data-name="Path 8" d="M264.947,160.635l5.843-6.775-21.757-23.812-10.017-23.225a7.134,7.134,0,0,0-8.135-4.13h0a7.134,7.134,0,0,0-4.746,10.242l13.074,25.184Z" transform="translate(-81.443 -47.223)" fill="#e6e6e6"/>
      <path id="Path_9" data-name="Path 9" d="M197.462,203.158l-1.12-1.738h-2.068v-.758h2.481l1.344,2.085Z" fill="#3f3d56"/>
      <path id="Path_10" data-name="Path 10" d="M274.265,248.643h-4.358v-.758h4.358Zm-5.811,0H264.1v-.758h4.358Zm-5.811,0h-4.358v-.758h4.358Zm-5.811,0h-4.358v-.758h4.358Zm-5.811,0h-4.358v-.758h4.358Zm-5.811,0-4.038,0-.367-.049.1-.751.342.046h3.962Zm-5.845-.244-4.32-.574.1-.751,4.321.574Zm-5.76-.765-4.32-.574.1-.751,4.32.574Zm-5.76-.766-4.32-.574.1-.751,4.32.574Zm-5.76-.765-4.32-.574.1-.751,4.32.574Z" transform="translate(-81.443 -47.223)" fill="#3f3d56"/>
      <path id="Path_11" data-name="Path 11" d="M132.989,199.724l-.758-.021.077-2.694,2.672.355-.1.751-1.838-.244Z" fill="#3f3d56"/>
      <path id="Path_12" data-name="Path 12" d="M213.853,267.243l-.758-.021.145-5.074.758.021Zm.193-6.766-.758-.021.145-5.074.758.021Zm.193-6.766-.758-.021.145-5.074.758.021Z" transform="translate(-81.443 -47.223)" fill="#3f3d56"/>
      <path id="Path_13" data-name="Path 13" d="M131.526,224.385l.077-2.695.758.021-.053,1.853,1.847-.144.059.756Z" fill="#3f3d56"/>
      <path id="Path_14" data-name="Path 14" d="M217.108,271.287l-.059-.756,4.352-.338.059.756Zm5.8-.451-.059-.756,4.352-.338.059.756Zm5.8-.451-.059-.756,4.353-.338.058.756Zm5.8-.451-.058-.756,4.352-.338.058.756Zm5.8-.451-.058-.756,4.353-.338.058.756Zm5.8-.451-.059-.756,4.352-.338.058.756Zm5.8-.451-.058-.756,4.353-.338.058.756Zm5.8-.451-.059-.756,4.352-.338.059.756Zm5.8-.451-.059-.756,4.353-.338.059.756Zm5.8-.451-.059-.756,4.352-.338.059.756Zm5.8-.451-.058-.756,4.353-.338.059.756Zm5.8-.451-.058-.756,4.352-.338.059.756Z" transform="translate(-81.443 -47.223)" fill="#3f3d56"/>
      <path id="Path_15" data-name="Path 15" d="M205.3,218.653l-.059-.756,1.635-.127-.888-1.378.638-.411,1.576,2.446Z" fill="#3f3d56"/>
      <path id="Path_16" data-name="Path 16" d="M286.487,262.145l-2.843-4.412.637-.411,2.843,4.412Zm-3.791-5.882-2.843-4.412.637-.411,2.843,4.412Z" transform="translate(-81.443 -47.223)" fill="#3f3d56"/>
      <circle id="Ellipse_1" data-name="Ellipse 1" cx="25.777" cy="25.777" r="25.777" transform="translate(165.275 183.414)" fill="#8a57dc"/>
      <path id="Path_17" data-name="Path 17" d="M212.28,239.138l-37.718-66.906-8.34,8.34,37.149,58.377Z" fill="#3f3d56"/>
      <path id="Path_18" data-name="Path 18" d="M97.99,237.432l84.723-85.86,7.013,13.836-80.363,75.814Z" fill="#3f3d56"/>
      <circle id="Ellipse_2" data-name="Ellipse 2" cx="17.058" cy="17.058" r="17.058" transform="translate(115.427 194.218)" fill="#3f3d56"/>
      <path id="Path_19" data-name="Path 19" d="M191.185,263.427a.379.379,0,0,0-.379.379v3.033a.379.379,0,0,0,.379.379h9.477a.379.379,0,0,0,.379-.379v-3.033a.379.379,0,0,0-.379-.379Z" transform="translate(-81.443 -47.223)" fill="#8a57dc"/>
      <path id="Path_20" data-name="Path 20" d="M212.981,221.16a.379.379,0,0,0-.379.379v3.033a.379.379,0,0,0,.379.379h9.477a.379.379,0,0,0,.379-.379v-3.033a.379.379,0,0,0-.379-.379Z" transform="translate(-81.443 -47.223)" fill="#8a57dc"/>
      <path id="Path_21" data-name="Path 21" d="M177.6,167.683h-9.856V160.1l3.791-1.516,6.065,4.549Z" fill="#3f3d56"/>
      <rect id="Rectangle_2" data-name="Rectangle 2" width="1.137" height="4.549" transform="translate(167.958 157.15) rotate(-25.316)" fill="#3f3d56"/>
      <path id="Path_22" data-name="Path 22" d="M251.52,198.968a.375.375,0,0,0-.2.06l-6.7,4.306a.379.379,0,0,0-.114.524l1.64,2.551a.379.379,0,0,0,.524.114l6.7-4.306h0a.38.38,0,0,0,.114-.524l-1.64-2.551a.382.382,0,0,0-.32-.174Z" transform="translate(-81.443 -47.223)" fill="#8a57dc"/>
      <path id="Path_23" data-name="Path 23" d="M266.62,214.147h0l-7.771-37.718,9.1-1.516,6.2,30.385a7.181,7.181,0,0,1-7.53,8.849Z" transform="translate(-81.443 -47.223)" fill="#3f3d56"/>
      <path id="Path_24" data-name="Path 24" d="M295.252,169l-9-.643a.758.758,0,0,1-.644-1.052l13.073-30.866a.758.758,0,0,1,.565-.451l8.877-1.585a.758.758,0,0,1,.839,1.023l-12.95,33.094A.758.758,0,0,1,295.252,169Z" transform="translate(-81.443 -47.223)" fill="#3f3d56"/>
      <path id="Path_25" data-name="Path 25" d="M206.026,118.782l7.2.758,11.751-29.568L217.4,91.11Z" fill="#8a57dc"/>
      <path id="Path_26" data-name="Path 26" d="M127.558,199.9l-9.477,9.477-13.647-59.514L112.016,151Z" fill="#3f3d56"/>
      <path id="Path_27" data-name="Path 27" d="M197.957,198.136l-1.637-.491a22.9,22.9,0,0,1-10.227,1.925,2.931,2.931,0,0,1-2.809-2.945h0a2.947,2.947,0,0,1,2.947-2.947h14.3a1.459,1.459,0,0,1,1.459,1.459h0a3.131,3.131,0,0,1-4.031,3Z" transform="translate(-81.443 -47.223)" fill="#3f3d56"/>
      <path id="Path_28" data-name="Path 28" d="M288.519,160.918a1.665,1.665,0,0,0-1.013.342l-11.638,8.9-13.027,1.7c-2.243.293-3.8,2.733-3.991,4.951l15.335-2.13a10.3,10.3,0,0,0,5.76-2.472l9.667-8.361a1.667,1.667,0,0,0-1.092-2.929Z" transform="translate(-81.443 -47.223)" fill="#3f3d56"/>
      <path id="Path_29" data-name="Path 29" d="M282.833,155.232a1.666,1.666,0,0,0-1.013.342l-11.638,8.9-13.027,1.7c-2.243.293-3.8,2.733-3.991,4.951l15.335-2.13a10.3,10.3,0,0,0,5.76-2.472l9.667-8.361a1.667,1.667,0,0,0-1.092-2.929Z" transform="translate(-81.443 -47.223)" fill="#3f3d56"/>
      <path id="Path_30" data-name="Path 30" d="M289.933,178.136a17.322,17.322,0,0,1-13.917-7.057l1.528-1.121a15.353,15.353,0,1,0,23.9-19.23l1.421-1.255a17.248,17.248,0,0,1-12.93,28.663Z" transform="translate(-81.443 -47.223)" fill="#3f3d56"/>
      <rect id="Rectangle_3" data-name="Rectangle 3" width="134.192" height="9.477" transform="translate(87.566 237.242)" fill="#3f3d56"/>
      <path id="Path_31" data-name="Path 31" d="M270.315,173.094h0a3.862,3.862,0,0,0,.528-6.912l-8.013-4.726-5.686,3.033,9.216,7.945a3.862,3.862,0,0,0,3.956.661Z" transform="translate(-81.443 -47.223)" fill="#ffb9b9"/>
      <path id="Path_32" data-name="Path 32" d="M207.485,206.566l5.307,3.033,32.77-24.121a10.557,10.557,0,0,0,4.487-7.169h0a10.592,10.592,0,0,0-3.821-9.771c-7.237-5.878-16.181-11.209-25.665-16.368l-14.026,6.823c5.78,11.852,12.2,21.624,21.607,21.607Z" transform="translate(-81.443 -47.223)" fill="#8a57dc"/>
      <path id="Path_33" data-name="Path 33" d="M205.171,214.288c4.4,4.461,10.2,7.653,16.678,10.227a2.539,2.539,0,0,0,2.849-.692h0a2.538,2.538,0,0,0-.094-3.439l-4.2-4.31-2.536-9.034c-5.447,2.692-9.018,2.09-9.722-3.551l-3.433,4.682A4.726,4.726,0,0,0,205.171,214.288Z" transform="translate(-81.443 -47.223)" fill="#2f2e41"/>
      <path id="Path_34" data-name="Path 34" d="M190.427,254.329l7.961.379,18.2-93.631-31.273-10.045c-3.122,11.674,1.514,30.782,9.666,53.26Z" transform="translate(-81.443 -47.223)" fill="#8a57dc"/>
      <circle id="Ellipse_3" data-name="Ellipse 3" cx="12.509" cy="12.509" r="12.509" transform="translate(157.694 27.615)" fill="#ffb9b9"/>
      <path id="Path_35" data-name="Path 35" d="M147.27,55.477l7.961,5.686,12.13-12.13L161.3,41.452Z" fill="#ffb9b9"/>
      <path id="Path_36" data-name="Path 36" d="M183.982,151.98c9.817,8,20.538,13.259,33.737,10.993,3.989-6.377,6.934-19.81,11.941-25.587,10.934-12.617,16.358-23.863,12.888-34.116-3.372-2.2-3.224-2.2-5.686-9.477C217.577,97.36,198.906,119.131,183.982,151.98Z" transform="translate(-81.443 -47.223)" fill="#e6e6e6"/>
      <path id="Path_37" data-name="Path 37" d="M190.3,262.13c5.666,2.68,12.208,3.688,19.174,3.885a2.539,2.539,0,0,0,2.439-1.628h0a2.538,2.538,0,0,0-1.269-3.2l-5.422-2.608-5.482-7.615c-4.192,4.4-7.754,5.057-10.35,0l-1.619,5.575a4.726,4.726,0,0,0,2.528,5.588Z" transform="translate(-81.443 -47.223)" fill="#2f2e41"/>
      <path id="Path_38" data-name="Path 38" d="M256.385,167.142l7.2-5.307-15.921-28.051-4.606-24.87a7.133,7.133,0,0,0-7.014-5.835h0a7.133,7.133,0,0,0-6.9,8.931l7.151,27.46Z" transform="translate(-81.443 -47.223)" fill="#e6e6e6"/>
      <rect id="Rectangle_4" data-name="Rectangle 4" width="4.17" height="22.744" transform="translate(134.571 177.349)" fill="#3f3d56"/>
      <path id="Path_39" data-name="Path 39" d="M261.548,83.72a4.607,4.607,0,0,0,4.066,1.625,3.486,3.486,0,0,0,2.942-3.04,5.506,5.506,0,0,0-1.5-3.555,28.82,28.82,0,0,0-6.3-5.944,7.685,7.685,0,0,0-3.775-1.6c-.683-.042-1.368.076-2.052.046a20.73,20.73,0,0,1-3.664-.88,9.014,9.014,0,0,0-7.32,1.551,10.861,10.861,0,0,0-1.864,1.817,14,14,0,0,0-2.944,6.4c-.66,3.725.164,7.811-1.626,11.143,2.1-.2,3.784-1.8,5.78-2.482a6.91,6.91,0,0,1,4.559.041,2.2,2.2,0,0,0,1.23.23,1.892,1.892,0,0,0,.88-.643l3.816-4.152a4.813,4.813,0,0,1,2.8-1.862,4.42,4.42,0,0,1,1.98.393,29.873,29.873,0,0,1,4.424,2.1" transform="translate(-81.443 -47.223)" fill="#2f2e41"/>
      <path id="Path_40" data-name="Path 40" d="M172.857,123.142l-1.137.758,7.581,7.581,4.549-4.17-7.581-6.065Z" fill="#3f3d56"/>
      <rect id="Rectangle_5" data-name="Rectangle 5" width="93.881" height="97.137" fill="#e6e6e6"/>
      <rect id="Rectangle_6" data-name="Rectangle 6" width="83.858" height="86.766" transform="translate(5.011 5.186)" fill="#fff"/>
      <path id="Path_41" data-name="Path 41" d="M21.327,93.468h2.987l-.019-1.2L24.243,89.6,23.77,62.174l-.006-.128L23.52,48.033l-.595-34.064h-.134l-.633,34.313-.249,13.77-.006.128Z" fill="#e6e6e6"/>
      <rect id="Rectangle_7" data-name="Rectangle 7" width="2.385" height="9.008" transform="matrix(0.466, 0.885, -0.885, 0.466, 30.462, 86.325)" fill="#e6e6e6"/>
      <rect id="Rectangle_8" data-name="Rectangle 8" width="3.791" height="91.735" transform="translate(45.11 2.597)" fill="#e6e6e6"/>
      <rect id="Rectangle_9" data-name="Rectangle 9" width="93.881" height="3.791" transform="translate(0 46.569)" fill="#e6e6e6"/>
    </g>
  </g>
</svg>
