<svg xmlns="http://www.w3.org/2000/svg" xmlns:xlink="http://www.w3.org/1999/xlink" width="100" height="100" viewBox="0 0 100 100">
  <defs>
    <clipPath id="clip-path">
      <rect id="Rectangle_21" data-name="Rectangle 21" width="100" height="100" transform="translate(256 522)" fill="#8a57dc" stroke="#8a57dc" stroke-width="1"/>
    </clipPath>
  </defs>
  <g id="Mask_Group_6" data-name="Mask Group 6" transform="translate(-256 -522)" clip-path="url(#clip-path)">
    <g id="undraw_ninja_e-52-b" transform="translate(255.999 544.525)">
      <path id="Path_177" data-name="Path 177" d="M41.992,50.011a3.479,3.479,0,0,1,.416-.552.8.8,0,0,1-.064.048,1.063,1.063,0,0,0-.288.182.6.6,0,0,0-.1.245l-.245.952c.048-.061.1-.12.145-.18A1.682,1.682,0,0,1,41.992,50.011Z" transform="translate(-7.619 -15.741)" fill="#f2f2f2"/>
      <path id="Path_178" data-name="Path 178" d="M65.11,50.654a1.079,1.079,0,0,1-.1.31,4.33,4.33,0,0,1-.162,1.195,3.669,3.669,0,0,0-.1.5,11.98,11.98,0,0,0-.059,4.671.568.568,0,0,1,.147-.24,2.471,2.471,0,0,0,.432-1.121,27.41,27.41,0,0,0,.192-6.371.707.707,0,0,0-.209-.158,1.933,1.933,0,0,1-.007.279,9.289,9.289,0,0,1-.137.935Z" transform="translate(-7.619 -15.741)" fill="#f2f2f2"/>
      <path id="Path_179" data-name="Path 179" d="M51.645,50.014a.982.982,0,0,0-.075-.365,1.135,1.135,0,0,0-.186-.257l-.207-.236a32.654,32.654,0,0,0,.136,7.48,2.47,2.47,0,0,0,.432,1.121.569.569,0,0,1,.147.24,12.037,12.037,0,0,0-.059-4.671,3.669,3.669,0,0,0-.1-.5,4.761,4.761,0,0,1-.117-1.929A4.514,4.514,0,0,0,51.645,50.014Z" transform="translate(-7.619 -15.741)" fill="#f2f2f2"/>
      <path id="Path_180" data-name="Path 180" d="M52.834,44.72a6.575,6.575,0,0,1,.606,1.516l.066.224c-.032-.759-.047-1.518-.053-2.278q-.225.2-.452.395Z" transform="translate(-7.619 -15.741)" fill="#f2f2f2"/>
      <path id="Path_181" data-name="Path 181" d="M55.066,70.319a5.135,5.135,0,0,0-.122-1.586,4.706,4.706,0,0,1-.227-.99,3.035,3.035,0,0,1,.083-.672,12.588,12.588,0,0,0-.033-6.076c-.16-.524-.373-1.031-.536-1.554a3.778,3.778,0,0,1-.271.567.587.587,0,0,0-.327-.384,1.935,1.935,0,0,1-.007.279,9.291,9.291,0,0,1-.133.935.948.948,0,0,1-.118.351.789.789,0,0,1-.309.255c.056.127.111.253.166.384l-.4.113a2.914,2.914,0,0,1-.1,1.846c-.5,2.131-.05,4.407-.288,6.562Z" transform="translate(-7.619 -15.741)" fill="#f2f2f2"/>
      <path id="Path_182" data-name="Path 182" d="M53.612,39.832a3.479,3.479,0,0,1,.416-.552.8.8,0,0,1-.064.048,1.063,1.063,0,0,0-.288.181.6.6,0,0,0-.1.245l-.245.952c.048-.061.1-.12.145-.18A1.682,1.682,0,0,1,53.612,39.832Z" transform="translate(-7.619 -15.741)" fill="#f2f2f2"/>
      <path id="Path_183" data-name="Path 183" d="M63.265,39.835a.981.981,0,0,0-.075-.365A1.135,1.135,0,0,0,63,39.212l-.207-.236a33.363,33.363,0,0,0,.117,7.369c.078-.262.157-.523.234-.785a7.977,7.977,0,0,1,.462-1.257c-.045-.384-.1-.775-.157-1.157a3.669,3.669,0,0,0-.1-.5,4.761,4.761,0,0,1-.117-1.929,4.514,4.514,0,0,0,.03-.884Z" transform="translate(-7.619 -15.741)" fill="#f2f2f2"/>
      <path id="Path_184" data-name="Path 184" d="M59.077,58.712l-.328,11.567.864-.01a36.119,36.119,0,0,1-.207-4.239,5.918,5.918,0,0,0-.071-1.231c-.061-.281-.166-.551-.224-.834a4.987,4.987,0,0,1-.064-1.023Z" transform="translate(-7.619 -15.741)" fill="#f2f2f2"/>
      <path id="Path_185" data-name="Path 185" d="M51.649,58.718c.013-.033.027-.063.039-.1.045-.117.085-.235.123-.354l-.008.013c-.076.125-.158.245-.244.363C51.591,58.668,51.621,58.693,51.649,58.718Z" transform="translate(-7.619 -15.741)" fill="#f2f2f2"/>
      <path id="Path_186" data-name="Path 186" d="M25.524,45.789a.981.981,0,0,0-.075-.365,1.135,1.135,0,0,0-.186-.257l-.207-.236a32.654,32.654,0,0,0,.136,7.48,2.47,2.47,0,0,0,.432,1.121.569.569,0,0,1,.147.24,12.037,12.037,0,0,0-.059-4.671,3.667,3.667,0,0,0-.1-.5,4.761,4.761,0,0,1-.122-1.929,4.514,4.514,0,0,0,.03-.884Z" transform="translate(-7.619 -15.741)" fill="#f2f2f2"/>
      <path id="Path_187" data-name="Path 187" d="M25.528,54.493c.013-.033.027-.063.039-.1.045-.117.085-.235.123-.354l-.008.013c-.076.125-.158.245-.244.363C25.47,54.442,25.5,54.467,25.528,54.493Z" transform="translate(-7.619 -15.741)" fill="#f2f2f2"/>
      <path id="Path_188" data-name="Path 188" d="M21.336,64.666q-.085,3.011-.171,6.021l.412,0c-.061-.255-.153-.5-.206-.763a4.986,4.986,0,0,1-.064-1.023Z" transform="translate(-7.619 -15.741)" fill="#f2f2f2"/>
      <path id="Path_189" data-name="Path 189" d="M27.506,70.466a.789.789,0,0,1-.309-.255.948.948,0,0,1-.118-.351,9.29,9.29,0,0,1-.133-.935,1.933,1.933,0,0,1-.007-.279.587.587,0,0,0-.327.384,4.478,4.478,0,0,1-.54-1.609c-.029.1-.059.2-.1.3a8.134,8.134,0,0,0-.547,1.794,3.553,3.553,0,0,0,.1,1.121l1.907-.02Z" transform="translate(-7.619 -15.741)" fill="#f2f2f2"/>
      <path id="Path_190" data-name="Path 190" d="M28.76,67.3c.037.119.078.237.123.354.012.033.026.063.039.1.029-.026.059-.051.089-.074-.085-.118-.168-.238-.244-.363Z" transform="translate(-7.619 -15.741)" fill="#f2f2f2"/>
      <path id="Path_191" data-name="Path 191" d="M42.519,69.293a11.9,11.9,0,0,1-.276-1.739l-.457-4.225c0-.037-.009-.074-.012-.111-.006.018-.011.036-.016.055a3.04,3.04,0,0,1-.576.909c-.23.28-.517.569-.854.488a.919.919,0,0,1-.366-.227l-.768-.664q-.228-.192-.452-.395c-.007.927-.028,1.853-.076,2.778a2.027,2.027,0,0,1-.178.855,9.782,9.782,0,0,1,.467,2.722c.007.251,0,.5-.008.751l2.251-.024h.013l1.693-.018A11.619,11.619,0,0,1,42.519,69.293Z" transform="translate(-7.619 -15.741)" fill="#f2f2f2"/>
      <path id="Path_192" data-name="Path 192" d="M38.716,59.733l.145.18-.245-.948a.6.6,0,0,0-.1-.245,1.063,1.063,0,0,0-.288-.182.8.8,0,0,1-.064-.048,3.479,3.479,0,0,1,.416.552,1.682,1.682,0,0,1,.14.69Z" transform="translate(-7.619 -15.741)" fill="#f2f2f2"/>
      <path id="Path_193" data-name="Path 193" d="M41.5,55.514c.061.666.1,1.336.13,2.005s.068,1.321.1,1.982a9.759,9.759,0,0,1,.355-1.507,2.012,2.012,0,0,1-.178-.855c-.048-.925-.069-1.852-.076-2.778-.147.132-.3.26-.446.384a5.393,5.393,0,0,1,.112.768Z" transform="translate(-7.619 -15.741)" fill="#f2f2f2"/>
      <path id="Path_194" data-name="Path 194" d="M28.742,62.356a11.98,11.98,0,0,0-.059,4.671.568.568,0,0,1,.147-.24,2.47,2.47,0,0,0,.432-1.121,32.655,32.655,0,0,0,.136-7.48l-.2.236a1.135,1.135,0,0,0-.192.254.981.981,0,0,0-.078.361,4.513,4.513,0,0,0,.03.882,4.761,4.761,0,0,1-.114,1.935,3.667,3.667,0,0,0-.1.5Z" transform="translate(-7.619 -15.741)" fill="#f2f2f2"/>
      <path id="Path_195" data-name="Path 195" d="M63.468,70.228l.753-.009c-.4-2.312.178-4.794-.368-7.106a7.212,7.212,0,0,1-.219-1.1,6.091,6.091,0,0,0-.462,1.554,10.579,10.579,0,0,0,.516,2.754,13.953,13.953,0,0,1-.215,3.861C63.471,70.2,63.47,70.212,63.468,70.228Z" transform="translate(-7.619 -15.741)" fill="#f2f2f2"/>
      <path id="Path_196" data-name="Path 196" d="M89.357,69.069c-.872-2.6,0-5.5-.631-8.163a2.851,2.851,0,0,1-.1-1.846l-.4-.122c.055-.127.11-.253.166-.384a.994.994,0,0,1-.215-.148l-.294,2.709a11.9,11.9,0,0,1-.276,1.739c-.166.64-.436,1.248-.629,1.877a11.674,11.674,0,0,0-.182,5.24l2.881-.032C89.576,69.652,89.456,69.363,89.357,69.069Z" transform="translate(-7.619 -15.741)" fill="#f2f2f2"/>
      <path id="Path_197" data-name="Path 197" d="M88.01,43.382l.008-.027.035-.112a1.239,1.239,0,0,0-.271-.17.8.8,0,0,1-.064-.048C87.812,43.146,87.918,43.259,88.01,43.382Z" transform="translate(-7.619 -15.741)" fill="#f2f2f2"/>
      <path id="Path_198" data-name="Path 198" d="M78.313,51.834c.037.119.078.237.123.354.012.033.026.063.039.1.029-.026.059-.051.089-.074-.085-.118-.168-.238-.244-.363Z" transform="translate(-7.619 -15.741)" fill="#f2f2f2"/>
      <path id="Path_199" data-name="Path 199" d="M90.147,53.758a21.221,21.221,0,0,0,.261-4.7.614.614,0,0,1-.525.152l-.016,0a4.079,4.079,0,0,1-.139.742,3.669,3.669,0,0,0-.1.5,11.98,11.98,0,0,0-.059,4.671.569.569,0,0,1,.147-.24A2.471,2.471,0,0,0,90.147,53.758Z" transform="translate(-7.619 -15.741)" fill="#f2f2f2"/>
      <path id="Path_200" data-name="Path 200" d="M47.447,70.4q0-.755.01-1.511-.022.757-.042,1.512Z" transform="translate(-7.619 -15.741)" fill="#f2f2f2"/>
      <path id="Path_201" data-name="Path 201" d="M107.292,28.742q-.1-.544-.228-1.067a11.539,11.539,0,0,0-7.106-8.4q-.514-.208-1.068-.384a18.159,18.159,0,0,0-2.57-.615,58.523,58.523,0,0,0-21.774.529c-.358.07-.714.144-1.068.219-8.9,1.881-16.483,4.8-24.572,4.541-.354-.011-.711-.028-1.067-.051a30.225,30.225,0,0,1-11.06-2.934c-4.6-2.169-9.287-1.44-13.512,1.143a26.606,26.606,0,0,0-6.62,5.954l-.007.008q-.423.519-.83,1.056c-6.5,8.631-10.1,21.538-7.145,31.54q.159.541.346,1.068a19.341,19.341,0,0,0,3.87,6.614,8.3,8.3,0,0,0,3.754,2.377c.248.076.5.139.756.192a10.171,10.171,0,0,0-.366-3.588c-.192-.631-.463-1.238-.629-1.877a11.9,11.9,0,0,1-.276-1.739L15.665,59.1a18.815,18.815,0,0,1-.166-2.617,9.782,9.782,0,0,1,.467-2.722,2.012,2.012,0,0,1-.178-.855c-.048-.925-.069-1.852-.076-2.778q-.225.2-.452.395l-.773.664a.919.919,0,0,1-.366.227c-.337.082-.636-.218-.854-.488a3.2,3.2,0,0,1-.576-.909,2.847,2.847,0,0,1-.1-.976c.008-.422.029-.842.051-1.263l.184-3.51c.035-.672.069-1.339.13-2.005a3.178,3.178,0,0,1,.351-1.378,2.493,2.493,0,0,1,2.362-.972.337.337,0,0,1-.009-.288.51.51,0,0,1,.232-.192l1.333-.714a.739.739,0,0,1,.313-.11.369.369,0,0,1,.171.036l.258-.181a.672.672,0,0,1,.192-.1.453.453,0,0,1,.262.012,1.05,1.05,0,0,0,.11-.416,1.48,1.48,0,0,0-.113-.524,2.534,2.534,0,0,1-1-2c-.288-.161-.659-.253-.776-.593-.08-.23.015-.486-.017-.728a.589.589,0,0,1-.142-.224c-.083-.24.025-.507-.019-.757a1.105,1.105,0,0,1-.068-.408.6.6,0,0,1,.152-.255l.944-1.119a2.467,2.467,0,0,1,.71-.645c.686-.351,1.507,0,2.277,0a2.384,2.384,0,0,1,.768.043,1.6,1.6,0,0,1,.474.3l1.056.864a1.721,1.721,0,0,1,.773,1.089,1.014,1.014,0,0,1-.06.407,1.056,1.056,0,0,1,.218.545,1.447,1.447,0,0,1-.306.884,4.677,4.677,0,0,1-.96,1.042,2.532,2.532,0,0,1-.608,1.223,7.928,7.928,0,0,0,.273.989.118.118,0,0,1,.007.016.48.48,0,0,1,.25.087,1.311,1.311,0,0,1,.207.192.3.3,0,0,1,.14-.117.576.576,0,0,1,.441.071,4.523,4.523,0,0,1,1.2.7,1.522,1.522,0,0,1,.313.4,1.972,1.972,0,0,1,1.385.312,3.937,3.937,0,0,1,1.277,2.249l.566,1.891a11.607,11.607,0,0,1,.555,2.528,11.557,11.557,0,0,1-.162,2.35,24.6,24.6,0,0,0,.206,3.349c0,.279,0,.562-.007.845a1.971,1.971,0,0,1,1.311-.278,1.522,1.522,0,0,1,.313-.4,4.576,4.576,0,0,1,1.2-.7.576.576,0,0,1,.441-.071.3.3,0,0,1,.14.117,1.312,1.312,0,0,1,.207-.192.48.48,0,0,1,.25-.087.116.116,0,0,1,.007-.016,7.93,7.93,0,0,0,.273-.989,2.532,2.532,0,0,1-.608-1.223,4.677,4.677,0,0,1-.96-1.042,1.447,1.447,0,0,1-.306-.884,1.056,1.056,0,0,1,.218-.545,1.014,1.014,0,0,1-.06-.407,1.725,1.725,0,0,1,.773-1.089l1.056-.864a1.6,1.6,0,0,1,.474-.3,2.387,2.387,0,0,1,.768-.043c.768,0,1.591-.35,2.277,0a2.442,2.442,0,0,1,.71.645l.944,1.119a.6.6,0,0,1,.152.255,1.125,1.125,0,0,1-.068.408c-.044.25.063.517-.019.757a.589.589,0,0,1-.142.224c-.033.242.062.5-.017.728-.117.34-.486.431-.776.593a2.534,2.534,0,0,1-1,1.99,1.48,1.48,0,0,0-.113.524,1.05,1.05,0,0,0,.11.416.453.453,0,0,1,.262-.012.672.672,0,0,1,.192.1l.258.181a.369.369,0,0,1,.171-.036.739.739,0,0,1,.313.11l1.333.714a.894.894,0,0,1,.163.109c.011-.258.022-.518.036-.776l.187-3.509c.035-.672.069-1.339.13-2.005a3.178,3.178,0,0,1,.351-1.378,2.493,2.493,0,0,1,2.362-.972.337.337,0,0,1-.009-.288.51.51,0,0,1,.232-.192l1.333-.714a.739.739,0,0,1,.313-.11.369.369,0,0,1,.171.036l.258-.181a.672.672,0,0,1,.192-.1.453.453,0,0,1,.262.012,1.05,1.05,0,0,0,.11-.416,1.48,1.48,0,0,0-.113-.524,2.534,2.534,0,0,1-1-2c-.288-.161-.659-.253-.776-.593-.08-.23.015-.486-.017-.728a.589.589,0,0,1-.142-.224c-.083-.24.025-.507-.019-.757a2.415,2.415,0,0,1-.073-.329,2.764,2.764,0,0,0-.24.622c-.135.545-.111,1.115-.192,1.67a.673.673,0,0,1-.246.5,2.734,2.734,0,0,1-.424.129.722.722,0,0,0-.384.589,5.7,5.7,0,0,0,.007.736,1.855,1.855,0,0,1-.869,1.62,3.05,3.05,0,0,1-2.454-.141,2.166,2.166,0,0,0,.916-.636l-.878-.178a5.687,5.687,0,0,0,1.4-.929,1.205,1.205,0,0,0,.357-.469c.1-.27.007-.576.1-.846.149-.462.714-.637,1-1.027a2,2,0,0,0,.26-1.219l0-1.611a1.546,1.546,0,0,1,.4-1.28c.412-.314,1-.135,1.514-.138a14.866,14.866,0,0,0,1.61-.288c.513-.059,1.368.3,1.354.708a6.027,6.027,0,0,0,.864.089,2.384,2.384,0,0,1,.768.043,1.6,1.6,0,0,1,.474.3l1.056.864a1.7,1.7,0,0,1,.768,1.089,1.014,1.014,0,0,1-.06.407,1.056,1.056,0,0,1,.218.545,1.447,1.447,0,0,1-.306.884,4.677,4.677,0,0,1-.96,1.042,2.532,2.532,0,0,1-.608,1.223,7.929,7.929,0,0,0,.273.989.117.117,0,0,1,.007.016.48.48,0,0,1,.25.087,1.312,1.312,0,0,1,.207.192.3.3,0,0,1,.14-.117.576.576,0,0,1,.441.071,5.324,5.324,0,0,1,1.056.586v-.059c.008-.422.029-.842.051-1.263l.192-3.515c.035-.672.069-1.339.13-2.005a3.178,3.178,0,0,1,.351-1.378,2.493,2.493,0,0,1,2.362-.972.337.337,0,0,1-.009-.288.51.51,0,0,1,.232-.192l1.333-.714a.739.739,0,0,1,.313-.11.369.369,0,0,1,.171.036l.258-.181a.672.672,0,0,1,.192-.1.453.453,0,0,1,.262.012A1.05,1.05,0,0,0,56.27,32a1.48,1.48,0,0,0-.113-.524,2.534,2.534,0,0,1-1-2c-.288-.161-.659-.253-.776-.593-.08-.23.015-.486-.017-.728a.589.589,0,0,1-.142-.224c-.083-.24.025-.507-.019-.757a1.105,1.105,0,0,1-.068-.408.6.6,0,0,1,.152-.255l.944-1.119a2.467,2.467,0,0,1,.71-.645c.686-.351,1.507,0,2.277,0a2.384,2.384,0,0,1,.768.043,1.6,1.6,0,0,1,.474.3l1.056.864a1.7,1.7,0,0,1,.768,1.089,1.014,1.014,0,0,1-.06.407,1.056,1.056,0,0,1,.218.545,1.447,1.447,0,0,1-.306.884,4.677,4.677,0,0,1-.96,1.042,2.532,2.532,0,0,1-.608,1.222,7.928,7.928,0,0,0,.273.989.117.117,0,0,1,.007.016.48.48,0,0,1,.25.087,1.313,1.313,0,0,1,.207.192.3.3,0,0,1,.14-.117.576.576,0,0,1,.441.071,4.523,4.523,0,0,1,1.2.7,1.522,1.522,0,0,1,.313.4,1.972,1.972,0,0,1,1.39.312,3.937,3.937,0,0,1,1.277,2.249l.566,1.891a11.606,11.606,0,0,1,.555,2.528,10.884,10.884,0,0,1-.142,2.2c.024-.025.048-.05.075-.074a4.576,4.576,0,0,1,1.2-.7.576.576,0,0,1,.441-.071.3.3,0,0,1,.14.117,1.311,1.311,0,0,1,.207-.192.48.48,0,0,1,.25-.087.116.116,0,0,1,.007-.016,7.931,7.931,0,0,0,.273-.989,2.532,2.532,0,0,1-.608-1.222,4.677,4.677,0,0,1-.96-1.042,1.447,1.447,0,0,1-.306-.884,1.056,1.056,0,0,1,.218-.545,1.014,1.014,0,0,1-.06-.407,1.736,1.736,0,0,1,.768-1.089l1.056-.864a1.6,1.6,0,0,1,.474-.3,2.387,2.387,0,0,1,.768-.043,6.028,6.028,0,0,0,.864-.089c-.014-.407.841-.768,1.354-.708a14.374,14.374,0,0,0,1.61.288c.519,0,1.1-.176,1.514.138a1.543,1.543,0,0,1,.4,1.28l0,1.617A2.008,2.008,0,0,0,75.988,38c.275.371.8.548.978.96a2.9,2.9,0,0,1,1-1.408,1.972,1.972,0,0,1,1.378-.319,1.522,1.522,0,0,1,.313-.4,4.576,4.576,0,0,1,1.2-.7.576.576,0,0,1,.441-.071.3.3,0,0,1,.14.117,1.312,1.312,0,0,1,.207-.192.48.48,0,0,1,.25-.087.117.117,0,0,1,.007-.016,7.929,7.929,0,0,0,.273-.989,2.532,2.532,0,0,1-.608-1.222,4.677,4.677,0,0,1-.96-1.042,1.447,1.447,0,0,1-.306-.884,1.056,1.056,0,0,1,.218-.545,1.014,1.014,0,0,1-.06-.407,1.736,1.736,0,0,1,.768-1.089l1.056-.864a1.6,1.6,0,0,1,.474-.3,2.387,2.387,0,0,1,.768-.043,6.027,6.027,0,0,0,.864-.089c-.014-.407.841-.768,1.354-.708a14.374,14.374,0,0,0,1.61.288c.519,0,1.1-.176,1.514.138a1.543,1.543,0,0,1,.4,1.28l0,1.614a2.008,2.008,0,0,0,.26,1.219c.288.39.854.565,1,1.027.086.271,0,.576.1.846a1.205,1.205,0,0,0,.357.469,5.658,5.658,0,0,0,.687.53,1.152,1.152,0,0,1,.182-.354,1.014,1.014,0,0,1-.06-.407,1.736,1.736,0,0,1,.768-1.089l1.056-.864a1.6,1.6,0,0,1,.474-.3,2.387,2.387,0,0,1,.768-.043c.768,0,1.591-.35,2.277,0a2.442,2.442,0,0,1,.71.645l.944,1.119a.6.6,0,0,1,.152.255,1.125,1.125,0,0,1-.068.408c-.044.25.063.517-.019.757a.589.589,0,0,1-.142.224c-.033.242.062.5-.017.728-.117.34-.486.431-.776.593a2.534,2.534,0,0,1-1,1.99,1.48,1.48,0,0,0-.113.524,1.05,1.05,0,0,0,.11.416.453.453,0,0,1,.262-.012.672.672,0,0,1,.192.1l.258.181a.369.369,0,0,1,.171-.036.739.739,0,0,1,.313.11l1.333.714a.51.51,0,0,1,.232.192.337.337,0,0,1-.009.288,2.491,2.491,0,0,1,2.362.972,3.192,3.192,0,0,1,.351,1.378c.061.666.1,1.336.13,2.005l.182,3.519c.022.421.043.841.051,1.263a2.847,2.847,0,0,1-.1.976,3.04,3.04,0,0,1-.576.909c-.23.28-.517.569-.854.488a.919.919,0,0,1-.366-.227l-.773-.664q-.228-.192-.452-.395c-.007.927-.028,1.853-.076,2.778a2.027,2.027,0,0,1-.178.855,9.782,9.782,0,0,1,.467,2.722,17.213,17.213,0,0,1-.127,2.256q.121-.256.243-.519C104.118,50.652,108.93,37.8,107.292,28.742Z" transform="translate(-7.619 -15.741)" fill="#f2f2f2"/>
      <path id="Path_202" data-name="Path 202" d="M15.835,45.712l-.245.952c.048-.061.1-.12.145-.18a1.682,1.682,0,0,1,.136-.694,3.479,3.479,0,0,1,.416-.552.8.8,0,0,1-.064.048,1.063,1.063,0,0,0-.288.182.6.6,0,0,0-.1.245Z" transform="translate(-7.619 -15.741)" fill="#f2f2f2"/>
      <path id="Path_203" data-name="Path 203" d="M74.728,50.033l.145.18-.245-.948a.6.6,0,0,0-.1-.245,1.063,1.063,0,0,0-.288-.181.8.8,0,0,1-.064-.048,3.479,3.479,0,0,1,.416.552,1.681,1.681,0,0,1,.14.69Z" transform="translate(-7.619 -15.741)" fill="#f2f2f2"/>
      <path id="Path_204" data-name="Path 204" d="M89.807,55.837c.029-.026.059-.051.089-.074-.085-.118-.168-.238-.244-.363l-.008-.013c.037.119.078.237.123.354A1.012,1.012,0,0,0,89.807,55.837Z" transform="translate(-7.619 -15.741)" fill="#f2f2f2"/>
      <path id="Path_205" data-name="Path 205" d="M64.772,57.6c.037.119.078.237.123.354.012.033.026.063.039.1.029-.026.059-.051.089-.074-.085-.118-.168-.238-.244-.363Z" transform="translate(-7.619 -15.741)" fill="#f2f2f2"/>
      <path id="Path_206" data-name="Path 206" d="M73.052,38.989a2.534,2.534,0,0,1-1,1.99,1.48,1.48,0,0,0-.113.524,1.049,1.049,0,0,0,.11.416.453.453,0,0,1,.262-.012.672.672,0,0,1,.192.1l.258.181a.369.369,0,0,1,.171-.036.739.739,0,0,1,.313.11l1.333.714a.51.51,0,0,1,.232.192.337.337,0,0,1-.009.288,3.5,3.5,0,0,1,.856.042,14.282,14.282,0,0,1,.4-1.588,1.977,1.977,0,0,1-.49-1.318,5.535,5.535,0,0,0,.007-.736.723.723,0,0,0-.384-.589,2.672,2.672,0,0,1-.424-.129.669.669,0,0,1-.246-.5c-.084-.555-.06-1.126-.192-1.67a2.764,2.764,0,0,0-.24-.622,2.413,2.413,0,0,1-.073.329c-.044.25.063.517-.019.757a.589.589,0,0,1-.142.224c-.033.242.062.5-.017.728C73.711,38.735,73.342,38.826,73.052,38.989Z" transform="translate(-7.619 -15.741)" fill="#f2f2f2"/>
      <path id="Path_207" data-name="Path 207" d="M78.295,46.895a11.98,11.98,0,0,0-.059,4.671.569.569,0,0,1,.147-.24,2.471,2.471,0,0,0,.432-1.121,32.654,32.654,0,0,0,.136-7.48l-.2.236a1.135,1.135,0,0,0-.192.254.982.982,0,0,0-.078.361,4.514,4.514,0,0,0,.03.882,4.761,4.761,0,0,1-.114,1.935A3.669,3.669,0,0,0,78.295,46.895Z" transform="translate(-7.619 -15.741)" fill="#f2f2f2"/>
      <path id="Path_208" data-name="Path 208" d="M76.833,54.848a.6.6,0,0,1-.491.126.919.919,0,0,1-.366-.227l-.768-.664q-.228-.192-.452-.395c-.007.927-.028,1.853-.076,2.778a2.027,2.027,0,0,1-.178.855,9.782,9.782,0,0,1,.467,2.722,19.425,19.425,0,0,1-.166,2.617q-.228,2.113-.457,4.225a11.9,11.9,0,0,1-.276,1.739c-.133.51-.331,1-.5,1.5l.981-.011L75.8,70.1h.154l2.113-.023a.014.014,0,0,0,0-.007,10.578,10.578,0,0,0,.516-2.754,8.134,8.134,0,0,0-.547-1.794c-.872-2.6,0-5.5-.631-8.163a2.851,2.851,0,0,1-.1-1.846l-.4-.122c.055-.127.11-.253.166-.384a.985.985,0,0,1-.235-.158Z" transform="translate(-7.619 -15.741)" fill="#f2f2f2"/>
      <path id="Path_209" data-name="Path 209" d="M69.127,68.219q.006.974.012,1.948h.042Z" transform="translate(-7.619 -15.741)" fill="#f2f2f2"/>
      <path id="Path_210" data-name="Path 210" d="M94,66.01q.01,1.471.019,2.94l.063-.037Q94.04,67.461,94,66.01Z" transform="translate(-7.619 -15.741)" fill="#f2f2f2"/>
      <path id="Path_211" data-name="Path 211" d="M91.672,35.649l-.162.033a2.121,2.121,0,0,0,.3.293,1.614,1.614,0,0,1-.139-.326Z" transform="translate(-7.619 -15.741)" fill="#f2f2f2"/>
      <path id="Path_212" data-name="Path 212" d="M82.668,62.457l.029,4.231a4.986,4.986,0,0,1-.064,1.023c-.058.282-.163.552-.224.834a5.667,5.667,0,0,0-.071,1.231v.248l.545-.006Q82.776,66.238,82.668,62.457Z" transform="translate(-7.619 -15.741)" fill="#f2f2f2"/>
      <path id="Path_213" data-name="Path 213" d="M99.6,47.824l.145.18-.245-.952a.6.6,0,0,0-.1-.245,1.063,1.063,0,0,0-.288-.182q-.033-.022-.064-.048a3.479,3.479,0,0,1,.416.552,1.682,1.682,0,0,1,.14.694Z" transform="translate(-7.619 -15.741)" fill="#f2f2f2"/>
      <path id="Path_214" data-name="Path 214" d="M86.593,33.227a2.534,2.534,0,0,1-1,1.99,1.48,1.48,0,0,0-.113.524,1.05,1.05,0,0,0,.11.416.453.453,0,0,1,.262-.012.672.672,0,0,1,.192.1l.258.181a.369.369,0,0,1,.171-.036.739.739,0,0,1,.313.11l1.333.714a.51.51,0,0,1,.232.192.337.337,0,0,1-.009.288,2.491,2.491,0,0,1,2.362.972,3.192,3.192,0,0,1,.351,1.378c.008.087.014.175.021.263a5.005,5.005,0,0,1,1.111-.63.576.576,0,0,1,.441-.071.3.3,0,0,1,.14.117,1.311,1.311,0,0,1,.207-.192.48.48,0,0,1,.25-.087.117.117,0,0,1,.007-.016,7.928,7.928,0,0,0,.273-.989A2.532,2.532,0,0,1,92.9,37.22a4.735,4.735,0,0,1-.782-.8,2.693,2.693,0,0,1-2.141.035,1.851,1.851,0,0,1-.864-1.62,5.535,5.535,0,0,0,.007-.736.723.723,0,0,0-.384-.589,2.671,2.671,0,0,1-.424-.129.669.669,0,0,1-.246-.5c-.084-.555-.06-1.126-.192-1.67a2.764,2.764,0,0,0-.24-.622,2.416,2.416,0,0,1-.073.329c-.044.25.063.517-.019.757a.589.589,0,0,1-.142.224c-.033.242.062.5-.017.728C87.252,32.973,86.883,33.064,86.593,33.227Z" transform="translate(-7.619 -15.741)" fill="#f2f2f2"/>
      <path id="Path_215" data-name="Path 215" d="M71.064,68.388v2.3H21.607v-2.3a.672.672,0,0,1,.672-.672H70.392A.672.672,0,0,1,71.064,68.388Z" transform="translate(-7.619 -15.741)" fill="#3f3d56"/>
      <path id="Path_216" data-name="Path 216" d="M52.316,34.133a2.492,2.492,0,0,1,.788,1.335,3.537,3.537,0,0,1-2.312-.522,29.351,29.351,0,0,0-7.106-2.292,1.067,1.067,0,0,1-.543-.207.924.924,0,0,1,.031-1.143c.275-.28.783-.24,1.152-.26a10.52,10.52,0,0,1,7.994,3.09Z" transform="translate(-7.619 -15.741)" fill="#192534"/>
      <path id="Path_217" data-name="Path 217" d="M68.6,70.689H48.957a10.617,10.617,0,0,1-.617-1.855c-.05-.2-.1-.4-.142-.6-.04-.175-.079-.351-.115-.525q-.167-.788-.288-1.584-.116-.749-.192-1.5-.075-.721-.116-1.447v-.041a.843.843,0,0,1,.157-.642.829.829,0,0,1,.546-.183c1.633-.111,3.219.48,4.848.393a4.436,4.436,0,0,1,1.208-.012,1.541,1.541,0,0,1,.192.049c.1.03.185.061.277.1a12.182,12.182,0,0,0,1.88.632,30.462,30.462,0,0,0,3.481.257q.144.009.288.023c.118.01.236.022.353.036a13.244,13.244,0,0,1,2.914.73c.507.183,1.006.391,1.5.611.141.063.281.127.422.192.25.116.5.239.751.373.1.051.192.1.282.158a4.58,4.58,0,0,1,1.813,1.7c.03.054.057.109.083.164s.045.1.066.156A5.25,5.25,0,0,1,68.6,70.689Z" transform="translate(-7.619 -15.741)" fill="#202f42"/>
      <path id="Path_218" data-name="Path 218" d="M68.6,70.689H48.957a10.617,10.617,0,0,1-.617-1.855c-.05-.2-.1-.4-.142-.6-.04-.175-.079-.351-.115-.525q-.167-.788-.288-1.584-.116-.749-.192-1.5-.075-.721-.116-1.447v-.041a.843.843,0,0,1,.157-.642.829.829,0,0,1,.546-.183c1.633-.111,3.219.48,4.848.393a4.436,4.436,0,0,1,1.208-.012,1.541,1.541,0,0,1,.192.049c.1.03.185.061.277.1a12.182,12.182,0,0,0,1.88.632,30.462,30.462,0,0,0,3.481.257q.144.009.288.023c.118.01.236.022.353.036a13.244,13.244,0,0,1,2.914.73c.507.183,1.006.391,1.5.611.141.063.281.127.422.192.25.116.5.239.751.373.1.051.192.1.282.158a4.58,4.58,0,0,1,1.813,1.7c.03.054.057.109.083.164s.045.1.066.156A5.25,5.25,0,0,1,68.6,70.689Z" transform="translate(-7.619 -15.741)" opacity="0.1"/>
      <path id="Path_219" data-name="Path 219" d="M50.672,70.689H28.531a2.6,2.6,0,0,1-.742-1.988,6.318,6.318,0,0,1,.152-.9c.008-.032.016-.062.025-.1a2.231,2.231,0,0,1,.983-1.344,14.891,14.891,0,0,1,2.881-1.142c.516-.192,1.013-.435,1.529-.628a12.309,12.309,0,0,1,2.287-.584c.086-.014.174-.029.26-.041s.178-.028.267-.04c.48-.069.96-.126,1.445-.182a15.653,15.653,0,0,1,3.192-.153,10.913,10.913,0,0,1,2.491.559c.607.2,1.206.438,1.8.672A14.305,14.305,0,0,1,47.8,66.118c.072.048.142.1.212.147a6.376,6.376,0,0,1,1.433,1.44,6.81,6.81,0,0,1,.606,1.006A6.984,6.984,0,0,1,50.672,70.689Z" transform="translate(-7.619 -15.741)" fill="#202f42"/>
      <path id="Path_220" data-name="Path 220" d="M44.359,31.972a3.317,3.317,0,0,1-1.8,1.81c-.439.156-.912.183-1.36.311a1.5,1.5,0,0,0-1.056.829,1.939,1.939,0,0,0-.083.591,12.685,12.685,0,0,0,.626,5.552,12.293,12.293,0,0,0,3.01,3.781,12.775,12.775,0,0,0,4.634,3.224,3.474,3.474,0,0,0,3.174-.3,4.614,4.614,0,0,0,.888-1.029,12.425,12.425,0,0,0,1.525-2.593c.744-1.921.494-4.06.231-6.1a.5.5,0,0,0-.129-.327.539.539,0,0,0-.384-.066,2.243,2.243,0,0,1-2.267-1.305,3.425,3.425,0,0,1-.124-1.2l.036-2.326a1.973,1.973,0,0,0-.087-.743,1.832,1.832,0,0,0-.971-.838,24.078,24.078,0,0,0-3.964-1.561c-.6-.176-1.052-.469-1.318.173C44.655,30.519,44.668,31.293,44.359,31.972Z" transform="translate(-7.619 -15.741)" fill="#fbbebe"/>
      <path id="Path_221" data-name="Path 221" d="M44.359,31.972a3.317,3.317,0,0,1-1.8,1.81c-.439.156-.912.183-1.36.311a1.5,1.5,0,0,0-1.056.829,1.939,1.939,0,0,0-.083.591,12.685,12.685,0,0,0,.626,5.552,12.293,12.293,0,0,0,3.01,3.781,12.775,12.775,0,0,0,4.634,3.224,3.474,3.474,0,0,0,3.174-.3,4.614,4.614,0,0,0,.888-1.029,12.425,12.425,0,0,0,1.525-2.593c.744-1.921.494-4.06.231-6.1a.5.5,0,0,0-.129-.327.539.539,0,0,0-.384-.066,2.243,2.243,0,0,1-2.267-1.305,3.425,3.425,0,0,1-.124-1.2l.036-2.326a1.973,1.973,0,0,0-.087-.743,1.832,1.832,0,0,0-.971-.838,24.078,24.078,0,0,0-3.964-1.561c-.6-.176-1.052-.469-1.318.173C44.655,30.519,44.668,31.293,44.359,31.972Z" transform="translate(-7.619 -15.741)" opacity="0.1"/>
      <circle id="Ellipse_49" data-name="Ellipse 49" cx="7.106" cy="7.106" r="7.106" transform="translate(35.932 3.908)" fill="#fbbebe"/>
      <path id="Path_222" data-name="Path 222" d="M51.333,37.9l-.794,1.972a6.269,6.269,0,0,1-.639,1.289,3.2,3.2,0,0,1-3.522,1.161c-1.184-.391-2.235-1.5-3.457-1.233A2.185,2.185,0,0,0,41.5,42.316a5.472,5.472,0,0,0-.433,1.887,23.956,23.956,0,0,0,.84,8.889,1.689,1.689,0,0,0,.422.815,1.711,1.711,0,0,0,1.056.3q2.593.155,5.2.182a19.115,19.115,0,0,0,3.189-.157c1.053-.165,2.06-.48,3.1-.688.971-.192,1.965-.281,2.914-.561a.751.751,0,0,0,.413-.231.69.69,0,0,0,.1-.408,4.843,4.843,0,0,0-.358-1.611,27.061,27.061,0,0,1-1.308-4.021,34.377,34.377,0,0,1-.192-5.812,6.32,6.32,0,0,0-.3-2.056A2.627,2.627,0,0,0,54.8,37.312C53.706,36.823,51.858,36.6,51.333,37.9Z" transform="translate(-7.619 -15.741)" fill="#8a57dc"/>
      <path id="Path_223" data-name="Path 223" d="M47.68,47.226c-.507-.43-.48-1.2-.541-1.86a10.686,10.686,0,0,0-1.183-3.53l-1.589-3.377c-.665-1.408-1.344-3.011-.8-4.469.183-.492.5-.93.659-1.429a1.342,1.342,0,0,0-.28-1.453c-.521-.419-1.29-.133-1.878.184a28.757,28.757,0,0,0-3.124,1.964A1.481,1.481,0,0,0,38.3,34a5.658,5.658,0,0,1-.1.615c-.15.384-.617.5-1.015.59a12.4,12.4,0,0,0-7.9,5.8,6.884,6.884,0,0,0-.672,1.5,9.841,9.841,0,0,0-.288,2.065q-.184,2.679-.355,5.356a7,7,0,0,0,.115,2.361c.139.49.384.948.488,1.447a4.291,4.291,0,0,1-.787,3A14.9,14.9,0,0,0,26.2,59.48a6.452,6.452,0,0,0-.311,1.961,11.255,11.255,0,0,0,1.788,6.348c1.18.174,2.064-1,3.148-1.5,1.589-.729,3.6-.145,5.09-1.046a12.438,12.438,0,0,1,1.067-.7,3.961,3.961,0,0,1,1.123-.279,17.109,17.109,0,0,1,4.272-.24c2.017.218,4.1,1.114,6,.391.468-.179.9-.448,1.366-.622,1.729-.641,3.649.125,5.49-.016-.288-.015-.417-.342-.471-.629q-.182-.956-.321-1.921a4.535,4.535,0,0,1-.024-1.68,6.516,6.516,0,0,1,.633-1.427c.742-1.469,1.056-3.117,1.693-4.636.3-.724.672-1.416,1.031-2.113a43.57,43.57,0,0,0,3.368-8.985c-.838-1.5-1.6-3.073-2.436-4.577a4.608,4.608,0,0,0-.864-1.217,4.675,4.675,0,0,0-1.948-.9,6.747,6.747,0,0,0-1.825-.342c-.623,0-2.377-.652-2.8-.2s.543,1.982.521,2.62a14.6,14.6,0,0,1-.058,1.913c-.154.919-.672,1.738-.908,2.639a12.963,12.963,0,0,0-.214,1.291,14.665,14.665,0,0,1-.758,2.84,1.92,1.92,0,0,1-.278.54C49.119,47.556,48.387,47.344,47.68,47.226Z" transform="translate(-7.619 -15.741)" fill="#192534"/>
      <path id="Path_224" data-name="Path 224" d="M61.79,57.345a3.961,3.961,0,0,0,.658.553,24.767,24.767,0,0,1,2.2,2.567c.4.41.856.753,1.277,1.136a17.323,17.323,0,0,1,2.491,3.089,3.223,3.223,0,0,1,.48.887,2.057,2.057,0,0,1-.275,1.658,3.633,3.633,0,0,1-1.267,1.158,6.135,6.135,0,0,1-.811.4.647.647,0,0,1-.8-.931,11.168,11.168,0,0,0,.565-1.028,1.464,1.464,0,0,0,.182-.636,1.075,1.075,0,0,0-.672-.888,3.8,3.8,0,0,0-1.145-.24,12.79,12.79,0,0,1-6.073-2.416c-1.008-.749-1.98-1.847-1.82-3.092a3.141,3.141,0,0,1,1.662-2.145,6.178,6.178,0,0,1,2.128-.768c.211-.035.741-.18.931-.034C61.664,56.744,61.632,57.153,61.79,57.345Z" transform="translate(-7.619 -15.741)" fill="#fbbebe"/>
      <path id="Path_225" data-name="Path 225" d="M61.79,57.345a3.961,3.961,0,0,0,.658.553,24.767,24.767,0,0,1,2.2,2.567c.4.41.856.753,1.277,1.136a17.323,17.323,0,0,1,2.491,3.089,3.223,3.223,0,0,1,.48.887,2.057,2.057,0,0,1-.275,1.658,3.633,3.633,0,0,1-1.267,1.158,6.135,6.135,0,0,1-.811.4.647.647,0,0,1-.8-.931,11.168,11.168,0,0,0,.565-1.028,1.464,1.464,0,0,0,.182-.636,1.075,1.075,0,0,0-.672-.888,3.8,3.8,0,0,0-1.145-.24,12.79,12.79,0,0,1-6.073-2.416c-1.008-.749-1.98-1.847-1.82-3.092a3.141,3.141,0,0,1,1.662-2.145,6.178,6.178,0,0,1,2.128-.768c.211-.035.741-.18.931-.034C61.664,56.744,61.632,57.153,61.79,57.345Z" transform="translate(-7.619 -15.741)" opacity="0.1"/>
      <path id="Path_226" data-name="Path 226" d="M53.783,22.74c-.96.983-2.5,1.025-3.878,1l.045-.539-1.934.693a5.2,5.2,0,0,0,1.27-1.358.863.863,0,0,0-.941-.061,2,2,0,0,0-.7.7,6.348,6.348,0,0,0-.7,5.648,1.244,1.244,0,0,1-1.243-.082,2.214,2.214,0,0,1-.8-1.01c-.114-.261-.233-.57-.506-.652a.566.566,0,0,0-.607.274,1.171,1.171,0,0,0-.132.691c.036.559.444,1.089.525,1.642s.908.983.48,1.344a6.255,6.255,0,0,1-1.543.365.679.679,0,0,1-.449-.441,17.491,17.491,0,0,1-.53-3.056,7.681,7.681,0,0,0-1.12-2.229,3.265,3.265,0,0,0-.429-.568,1.446,1.446,0,0,1-.41-.473c-.073-.2.061-.48.27-.448a8.739,8.739,0,0,0-1.082-.89q.57-.722,1.116-1.463c.125-.169.254-.384.163-.576a.6.6,0,0,0-.218-.211l-.993-.672c-.022-.456.907-.288,1.05-.719a.605.605,0,0,0-.025-.344l-.338-1.233,1.284.582a.9.9,0,0,0,.492.118c.339-.049.5-.45.52-.793a2.231,2.231,0,0,1,.133-1.01q.872-.035,1.743.012a1.145,1.145,0,0,0-.216-.824l4.291-.238a5.9,5.9,0,0,1,2.182.153,1.736,1.736,0,0,0,.722.164c.248-.028.5-.256.426-.495a7.788,7.788,0,0,1,1.747,1.344,1.778,1.778,0,0,0,.5.41.53.53,0,0,0,.6-.073c.117-.128.176-.351.349-.358a.363.363,0,0,1,.26.17,4.235,4.235,0,0,1,.593,1.03,3.775,3.775,0,0,0,.9-.236.973.973,0,0,0-.164,1.088c.143.365.4.672.576,1.022a4.171,4.171,0,0,1,.345,1.184c.087.513.088,1.159-.367,1.411a1.212,1.212,0,0,1-1.248-.288C54.781,21.695,54.591,21.914,53.783,22.74Z" transform="translate(-7.619 -15.741)" fill="#01e7c0"/>
      <path id="Path_227" data-name="Path 227" d="M58.8,68.111l6.654-.6a1.037,1.037,0,0,0,.943-1.088l0-.1a1.036,1.036,0,0,0-.738-.939l-1.076-.323a1.046,1.046,0,0,0-.3-.044h-2.44a1.073,1.073,0,0,0-.2.019c-.516.1-2.889.568-2.977.653-.047.048-.329.259-.6.461a1.036,1.036,0,0,0-.393,1.072l.02.088A1.037,1.037,0,0,0,58.8,68.111Z" transform="translate(-7.619 -15.741)" fill="#464a5f"/>
      <path id="Path_228" data-name="Path 228" d="M55.555,66.031l2.689-.768,4.994-.672s3.169-.864,3.457,1.825l-.269.455s.269-1.7-3-1.223c0,0-5.871-.2-5.624,2.113C57.806,67.758,55.747,67.376,55.555,66.031Z" transform="translate(-7.619 -15.741)" fill="#8a57dc"/>
      <ellipse id="Ellipse_50" data-name="Ellipse 50" cx="0.672" cy="0.096" rx="0.672" ry="0.096" transform="translate(50.913 48.467)" fill="#8a57dc"/>
      <rect id="Rectangle_22" data-name="Rectangle 22" width="0.48" height="0.864" transform="translate(57.107 48.611)" fill="#8a57dc"/>
      <rect id="Rectangle_23" data-name="Rectangle 23" width="0.48" height="0.864" transform="translate(51.345 48.611)" fill="#8a57dc"/>
      <ellipse id="Ellipse_51" data-name="Ellipse 51" cx="0.24" cy="0.768" rx="0.24" ry="0.768" transform="matrix(0.358, -0.934, 0.934, 0.358, 56.446, 48.364)" fill="#8a57dc"/>
      <path id="Path_229" data-name="Path 229" d="M37.7,65.89a2.659,2.659,0,0,0,.679.567,2.689,2.689,0,0,0,.824.218q4.364.672,8.7,1.5a12.515,12.515,0,0,1,2.4.637c.392.162.768.364,1.152.534,2.209.969,4.706.907,7.115.826a3.56,3.56,0,0,0,1.386-.231,1.01,1.01,0,0,0,.638-.768c.05-.6-.637-.96-1.185-1.221a6.909,6.909,0,0,1-3.139-2.9c-.123-.225-.223-.527-.05-.717a.678.678,0,0,1,.543-.135q1.21.047,2.42-.025c.418-.026.971-.224.9-.636a.765.765,0,0,0-.313-.424,4.02,4.02,0,0,0-2.5-1.222,4.8,4.8,0,0,0-1.44.36,23.945,23.945,0,0,1-7.875.883A9.488,9.488,0,0,1,46.011,63a10.139,10.139,0,0,1-1.53-.493,32.346,32.346,0,0,1-4.716-2.093,2.665,2.665,0,0,0-1.914-.562,1.993,1.993,0,0,0-.787.48A2.876,2.876,0,0,0,35.838,63,6.214,6.214,0,0,0,37.7,65.89Z" transform="translate(-7.619 -15.741)" fill="#fbbebe"/>
      <path id="Path_230" data-name="Path 230" d="M37.268,47.344a10.842,10.842,0,0,0,.819,2.374,11.489,11.489,0,0,1,1.466,2.215,6.405,6.405,0,0,1,.1,1.881,3.7,3.7,0,0,0,.532,2.054c.2.3.46.557.688.838a8.075,8.075,0,0,1,1.446,4.514c-.96-.544-2.084-1.1-3.124-.731a3.415,3.415,0,0,0-1.106.746,14.193,14.193,0,0,0-1.751,1.921,1.521,1.521,0,0,0-.425,1.243,20.086,20.086,0,0,1-1.586-2.566c-.313-.649-.556-1.335-.932-1.951a23.291,23.291,0,0,0-1.7-2.126,12.428,12.428,0,0,1-2.307-5.6,35.155,35.155,0,0,1-.347-6.1,4.69,4.69,0,0,1,.3-1.983,4.737,4.737,0,0,1,.679-.989,4.361,4.361,0,0,1,1.094-1.056c1.4-.822,2.894.541,3.828,1.473A9.383,9.383,0,0,1,37.268,47.344Z" transform="translate(-7.619 -15.741)" fill="#192534"/>
      <path id="Path_231" data-name="Path 231" d="M61.339,42.735a1.313,1.313,0,0,1,.307.42,1.407,1.407,0,0,1,.038.608,12.614,12.614,0,0,0,.256,3.636,2.554,2.554,0,0,1-.106,2.133,1.773,1.773,0,0,0-.192.245c-.213.4.181.835.48,1.177a3.476,3.476,0,0,1,.351,3.914,3.336,3.336,0,0,0-.372.7,2.216,2.216,0,0,0-.06.638l0,1.607a3.968,3.968,0,0,0-2.949.375c-.685.519-.956,1.421-1.537,2.049-.564.605-1.44.995-1.66,1.792l.012-3.32a7.667,7.667,0,0,0-.071-1.319c-.115-.687-.414-1.329-.589-2A11.457,11.457,0,0,1,55,52.671a20.235,20.235,0,0,1,.269-4.5c.128-.6.309-1.186.449-1.782a18.106,18.106,0,0,1,.831-3.206,3.212,3.212,0,0,1,2.424-2.035C60.128,41.034,60.62,41.983,61.339,42.735Z" transform="translate(-7.619 -15.741)" fill="#192534"/>
      <ellipse id="Ellipse_52" data-name="Ellipse 52" cx="0.672" cy="1.248" rx="0.672" ry="1.248" transform="matrix(0.866, -0.5, 0.5, 0.866, 56.188, 46.713)" fill="#fbbebe"/>
      <ellipse id="Ellipse_53" data-name="Ellipse 53" cx="0.672" cy="1.248" rx="0.672" ry="1.248" transform="matrix(0.866, -0.5, 0.5, 0.866, 56.188, 46.713)" opacity="0.1"/>
    </g>
  </g>
</svg>
