<svg xmlns="http://www.w3.org/2000/svg" xmlns:xlink="http://www.w3.org/1999/xlink" width="243" height="243" viewBox="0 0 243 243">
  <defs>
    <clipPath id="clip-path">
      <rect id="Rectangle_127" data-name="Rectangle 127" width="243" height="243" transform="translate(95 231)" fill="#fff" stroke="#707070" stroke-width="1"/>
    </clipPath>
  </defs>
  <g id="Mask_Group_9" data-name="Mask Group 9" transform="translate(-95 -231)" clip-path="url(#clip-path)">
    <g id="undraw_co_workers_re_1i6i" transform="translate(95 249.876)">
      <path id="Path_786" data-name="Path 786" d="M322.06,120.476q.428,1.671.8,3.36H238.024v-3.36Z" transform="translate(-82.332 -50.25)" fill="#e6e6e6"/>
      <path id="Path_787" data-name="Path 787" d="M319.356,111.62a103.822,103.822,0,0,0-4.77-11.3q-.836-1.7-1.736-3.36c-.1-.19-.2-.38-.309-.571v25h7.331v-8.286Z" transform="translate(-82.332 -50.25)" fill="#e6e6e6"/>
      <path id="Path_788" data-name="Path 788" d="M314.586,100.321h-2.045v-3.36h.309Q313.752,98.622,314.586,100.321Z" transform="translate(-82.332 -50.25)" fill="#ccc"/>
      <path id="Path_789" data-name="Path 789" d="M237.024,61.37H230.21v3.36h7.331V62.858Z" fill="#ccc"/>
      <rect id="Rectangle_128" data-name="Rectangle 128" width="7.33" height="29.013" transform="translate(218.91 42.131)" fill="#e6e6e6"/>
      <rect id="Rectangle_129" data-name="Rectangle 129" width="7.33" height="3.359" transform="translate(218.91 46.712)" fill="#ccc"/>
      <rect id="Rectangle_130" data-name="Rectangle 130" width="7.33" height="3.359" transform="translate(218.91 61.371)" fill="#ccc"/>
      <path id="Path_790" data-name="Path 790" d="M275.145,92.212H248.851a1.531,1.531,0,0,0-1.529,1.529v26.294a1.582,1.582,0,0,0,.064.442,1.532,1.532,0,0,0,1.464,1.087h26.294a1.532,1.532,0,0,0,1.464-1.087,1.578,1.578,0,0,0,.064-.442V93.741A1.531,1.531,0,0,0,275.145,92.212Z" transform="translate(-82.332 -50.25)" fill="#e6e6e6"/>
      <path id="Path_791" data-name="Path 791" d="M273.277,94.08H250.719a1.531,1.531,0,0,0-1.529,1.529v22.557a1.531,1.531,0,0,0,1.529,1.529h22.557a1.531,1.531,0,0,0,1.529-1.529V95.609A1.531,1.531,0,0,0,273.277,94.08Z" transform="translate(-82.332 -50.25)" fill="#fff"/>
      <path id="Path_792" data-name="Path 792" d="M269.343,98.014H254.653a1.531,1.531,0,0,0-1.529,1.529v14.689a1.531,1.531,0,0,0,1.529,1.529h14.69a1.537,1.537,0,0,0,1.529-1.529V99.543A1.531,1.531,0,0,0,269.343,98.014Z" transform="translate(-82.332 -50.25)" fill="#ccc"/>
      <path id="Path_793" data-name="Path 793" d="M268.437,111.641l-3.1-5.374a.68.68,0,0,0-1.177,0l-2.266,3.924-2.971-5.146a.679.679,0,0,0-1.177,0l-3.1,5.374-3.691,6.393h7.119l-.705,1.222h14.765Z" transform="translate(-82.332 -50.25)" fill="#fff"/>
      <circle id="Ellipse_83" data-name="Ellipse 83" cx="2.138" cy="2.138" r="2.138" transform="translate(182.872 48.85)" fill="#fff"/>
      <path id="Path_794" data-name="Path 794" d="M325.3,144.216q-.036-1.977-.156-3.934c-.034-.625-.075-1.247-.126-1.868H310.68a1.531,1.531,0,0,0-1.529,1.529v26.294a1.39,1.39,0,0,0,.044.357,1.53,1.53,0,0,0,1.485,1.172H323.9c.068-.387.133-.781.19-1.172.037-.231.075-.465.109-.7.081-.554.16-1.107.231-1.661q.153-1.131.275-2.273.448-4.092.578-8.272v0q.046-1.575.047-3.163v-4.077C325.332,145.7,325.325,144.957,325.3,144.216Z" transform="translate(-82.332 -50.25)" fill="#e6e6e6"/>
      <path id="Path_795" data-name="Path 795" d="M325.3,144.216q-.036-1.977-.156-3.934h-12.6a1.531,1.531,0,0,0-1.529,1.529v22.557a1.531,1.531,0,0,0,1.529,1.529H324.2c.081-.554.16-1.107.231-1.661q.153-1.131.275-2.273.448-4.092.578-8.272v0q.046-1.575.047-3.163v-4.077C325.332,145.7,325.325,144.957,325.3,144.216Z" transform="translate(-82.332 -50.25)" fill="#fff"/>
      <path id="Path_796" data-name="Path 796" d="M325.3,144.216h-8.823a1.531,1.531,0,0,0-1.529,1.529v14.689a1.531,1.531,0,0,0,1.529,1.529h8.225q.448-4.092.578-8.272v0q.046-1.575.047-3.163v-4.077C325.332,145.7,325.325,144.957,325.3,144.216Z" transform="translate(-82.332 -50.25)" fill="#ccc"/>
      <path id="Path_797" data-name="Path 797" d="M325.284,153.691q-.127,4.179-.578,8.272-.122,1.141-.275,2.273h-5.238l.707-1.22h-7.121l2.174-3.767,1.515-2.626,3.105-5.374a.676.676,0,0,1,1.175,0l2.973,5.147Z" transform="translate(-82.332 -50.25)" fill="#fff"/>
      <path id="Path_798" data-name="Path 798" d="M299.544,77.723h-61.52v-3.36h58.469Q298.052,76.009,299.544,77.723Z" transform="translate(-82.332 -50.25)" fill="#e6e6e6"/>
      <path id="Path_799" data-name="Path 799" d="M270.7,54.421q3.761,2.069,7.331,4.433V75.277H270.7Z" transform="translate(-82.332 -50.25)" fill="#e6e6e6"/>
      <rect id="Rectangle_131" data-name="Rectangle 131" width="7.33" height="3.359" transform="translate(188.37 15.255)" fill="#ccc"/>
      <path id="Path_800" data-name="Path 800" d="M289.332,67.484v7.793H282V61.617q2.563,1.87,5.011,3.89Q288.183,66.475,289.332,67.484Z" transform="translate(-82.332 -50.25)" fill="#e6e6e6"/>
      <path id="Path_801" data-name="Path 801" d="M289.332,67.484v1.379H282V65.506h5.011Q288.183,66.475,289.332,67.484Z" transform="translate(-82.332 -50.25)" fill="#ccc"/>
      <path id="Path_802" data-name="Path 802" d="M263.217,50.678q2.91,1.31,5.721,2.792l-1.508,3.044-5.011,10.127-1.491,3.01-2.334,4.712-.513,1.036-2.089-1.036-4.478-2.218,2.843-5.748h0l1.488-3.01,5.014-10.127,1.474-2.976.017-.034Z" transform="translate(-82.332 -50.25)" fill="#e6e6e6"/>
      <path id="Path_803" data-name="Path 803" d="M186.59,3.251,185.1,6.264,178.531,3.01,180.006.034,180.023,0l.863.428Z" fill="#ccc"/>
      <rect id="Rectangle_132" data-name="Rectangle 132" width="3.359" height="7.33" transform="matrix(0.444, -0.896, 0.896, 0.444, 172.026, 16.148)" fill="#ccc"/>
      <path id="Path_804" data-name="Path 804" d="M324.092,166.593c-.058.391-.122.785-.19,1.172-.119.734-.248,1.461-.387,2.188h-85.49v-3.36Z" transform="translate(-82.332 -50.25)" fill="#e6e6e6"/>
      <rect id="Rectangle_133" data-name="Rectangle 133" width="7.33" height="29.013" transform="translate(188.37 88.247)" fill="#e6e6e6"/>
      <rect id="Rectangle_134" data-name="Rectangle 134" width="7.33" height="3.359" transform="translate(188.37 92.828)" fill="#ccc"/>
      <rect id="Rectangle_135" data-name="Rectangle 135" width="7.33" height="3.359" transform="translate(188.37 107.488)" fill="#ccc"/>
      <rect id="Rectangle_136" data-name="Rectangle 136" width="7.33" height="29.013" transform="translate(199.669 88.247)" fill="#e6e6e6"/>
      <rect id="Rectangle_137" data-name="Rectangle 137" width="7.33" height="3.359" transform="translate(199.669 92.828)" fill="#ccc"/>
      <rect id="Rectangle_138" data-name="Rectangle 138" width="7.33" height="3.359" transform="translate(199.669 107.488)" fill="#ccc"/>
      <rect id="Rectangle_139" data-name="Rectangle 139" width="29.013" height="7.33" transform="matrix(0.444, -0.896, 0.896, 0.444, 169.181, 114.128)" fill="#e6e6e6"/>
      <rect id="Rectangle_140" data-name="Rectangle 140" width="3.359" height="7.33" transform="matrix(0.444, -0.896, 0.896, 0.444, 178.531, 95.243)" fill="#ccc"/>
      <rect id="Rectangle_141" data-name="Rectangle 141" width="3.359" height="7.33" transform="matrix(0.444, -0.896, 0.896, 0.444, 172.027, 108.381)" fill="#ccc"/>
      <path id="Path_805" data-name="Path 805" d="M181.8,179.541a6.722,6.722,0,0,1,.873.6l30.245-9.412,1.706-7.5,11.661,1.094-1.728,13.577a5.11,5.11,0,0,1-4.27,4.4l-35.593,5.635a6.7,6.7,0,1,1-2.893-8.391Z" transform="translate(-82.332 -50.25)" fill="#ffb8b8"/>
      <path id="Path_806" data-name="Path 806" d="M231.674,168.819l-.2-3.424v0l-.054-.938-.591-10.083a7.974,7.974,0,0,0-7.246-8.612,7.864,7.864,0,0,0-1.814.048,8,8,0,0,0-6.845,7.2l-1.226,5.1-2.144,8.924a2.86,2.86,0,0,0,1.475,3.221,2.812,2.812,0,0,0,1.063.313l3.574.319,3.441.306,3.971.353.285.024.734.068,2.456.217h.007a2.878,2.878,0,0,0,2.789-1.522,2.8,2.8,0,0,0,.326-1.508Z" transform="translate(-82.332 -50.25)" fill="#8a57dc"/>
      <path id="Path_807" data-name="Path 807" d="M264.864,127.3c0,11.627-10.751,9.868-24.013,9.868s-24.013,1.759-24.013-9.868,5.252-32.237,24.013-32.237C260.258,95.059,264.864,115.668,264.864,127.3Z" transform="translate(-82.332 -50.25)" fill="#2f2e41"/>
      <circle id="Ellipse_84" data-name="Ellipse 84" cx="16.159" cy="16.159" r="16.159" transform="translate(135.588 70.736) rotate(-45)" fill="#ffb8b8"/>
      <path id="Path_808" data-name="Path 808" d="M263.516,143.937a9.979,9.979,0,0,0-.988-.836,10.5,10.5,0,0,0-7.688-2.035l-29.776,3.768a10.572,10.572,0,0,0-9.223,11.476c.085.951.18,1.953.285,3,.136,1.308.289,2.68.465,4.1.292,2.388.649,4.909,1.074,7.474.37,2.208.792,4.447,1.274,6.659q.209.958.435,1.909a.012.012,0,0,0,0,.01c.017.078.034.156.054.231a.025.025,0,0,0,0,.017q.316,1.325.663,2.619c.088.319.173.635.261.948.238.849.489,1.682.747,2.5,1.94,6.091,4.5,11.279,7.892,14.037.044.041.088.075.136.112l.136.105.2-.061.836-.248.713-.217,9.295-2.8,2.313-.7,7.433-2.239h0l6.8-2.045.829-.251,5.84-1.756.187-2.181.251-2.894.149-1.739,1.182-13.718.69-8,.747-8.69a10.557,10.557,0,0,0-3.217-8.554Z" transform="translate(-82.332 -50.25)" fill="#2f2e41"/>
      <path id="Path_809" data-name="Path 809" d="M280.166,210.315c-.078-.228-.153-.455-.231-.679-3.492-10.192-8.642-17.9-16.222-22.1,0,0,0,0-.007,0l-.129-.071-6.6,2.286-.815.282-.849.3-.01,0-6.183,2.14-.01,0-4.851,1.678h0l-4.488,1.553h0l-1.043.364-7.844,2.714-.911.316-.815.282-.126.044-.024.387-.561,9.825-.037.679-.7,12.26L204.46,255.5h15.9a104.765,104.765,0,0,0,15.936-1.216l14.894-16.072a.988.988,0,0,1,1.678.489l2.191,10.871a105.052,105.052,0,0,0,29.9-16.449A120.3,120.3,0,0,0,280.166,210.315Z" transform="translate(-82.332 -50.25)" fill="#2f2e41"/>
      <path id="Path_810" data-name="Path 810" d="M222.1,119.4h6.391l2.82-7.895.564,7.895h3.055l1.645-4.605.329,4.605h22.7A17.105,17.105,0,0,0,242.5,102.3h-3.29A17.105,17.105,0,0,0,222.1,119.4Z" transform="translate(-82.332 -50.25)" fill="#2f2e41"/>
      <path id="Path_811" data-name="Path 811" d="M182.79,205.011a7.741,7.741,0,0,1-10.551-5.438l-27.336-3.1,9.163-10.973,24.554,4.622a7.783,7.783,0,0,1,4.17,14.885Z" transform="translate(-82.332 -50.25)" fill="#a0616a"/>
      <path id="Path_812" data-name="Path 812" d="M168.052,184.7,156.5,182.635l-.839-.149a4.828,4.828,0,0,1-3.774-6.146l5.673-18.851.17-.561a10.963,10.963,0,1,0-21.148-5.765L129.344,180.7l-.268,1.094A14.757,14.757,0,0,0,142.043,200c.024,0,.044,0,.068.007l4.331.384,5.619.5,7.066.628,6.594.588a3.456,3.456,0,0,0,3.717-2.847c.01-.048.017-.1.024-.143l1.4-10.45.014-.1a3.455,3.455,0,0,0-2.823-3.869Z" transform="translate(-82.332 -50.25)" fill="#ccc"/>
      <path id="Path_813" data-name="Path 813" d="M150.251,105.523c-4.612,9.068-8.247,18.421-18.421,18.421a18.421,18.421,0,1,1,0-36.842C142.17,86.972,158.836,88.644,150.251,105.523Z" transform="translate(-82.332 -50.25)" fill="#2f2e41"/>
      <path id="Path_814" data-name="Path 814" d="M161.821,224.152l-.418-4.172-.313.017-54.929,2.646.143,4.223.241,7.233a104.908,104.908,0,0,0,27.989,15.236l.357-2.765a.986.986,0,0,1,1.93-.122l1.084,4.039a103.722,103.722,0,0,0,27.038,4.9Z" transform="translate(-82.332 -50.25)" fill="#2f2e41"/>
      <circle id="Ellipse_85" data-name="Ellipse 85" cx="16.159" cy="16.159" r="16.159" transform="translate(27.554 57.894) rotate(-45)" fill="#a0616a"/>
      <path id="Path_815" data-name="Path 815" d="M164.977,220.262l-3.2-9.947-.054-.17-.163-.51-.914-2.833c-.3-.921-.578-1.845-.839-2.772q-.362-1.254-.676-2.514-.448-1.753-.815-3.519a87.212,87.212,0,0,1-1.654-12q-.112-1.676-.16-3.36a86.846,86.846,0,0,1,1.845-20.488,27.784,27.784,0,0,0-13.7-30.089,27.319,27.319,0,0,0-11.088-3.326c-.268-.02-.537-.037-.809-.054A27.5,27.5,0,0,0,110.68,137.6a28.052,28.052,0,0,0-3.846,5.327,27.669,27.669,0,0,0-3.166,17.56l3.818,25.639-.87,10.793-1.026,12.719-.054.679-1.094,13.562a2.954,2.954,0,0,0,1.862,2.99,2.891,2.891,0,0,0,1.087.207c.054,0,.105,0,.16,0l54.27-2.918.5-.027a2.957,2.957,0,0,0,2.66-3.863Z" transform="translate(-82.332 -50.25)" fill="#ccc"/>
      <path id="Path_816" data-name="Path 816" d="M149.884,99.012a21.977,21.977,0,0,1-12.56,3.881,13.468,13.468,0,0,0,5.338,2.2,44.315,44.315,0,0,1-18.1.1,11.715,11.715,0,0,1-3.789-1.3,4.8,4.8,0,0,1-2.339-3.128c-.4-2.269,1.371-4.33,3.208-5.719a23.663,23.663,0,0,1,19.884-3.973,10.889,10.889,0,0,1,5.889,3.328c1.443,1.784,1.87,4.534.5,6.371Z" transform="translate(-82.332 -50.25)" fill="#2f2e41"/>
      <path id="Path_817" data-name="Path 817" d="M150.709,201.65a7.741,7.741,0,0,1-10.667-5.209l-27.4-2.5,8.924-11.169,24.648,4.09a7.783,7.783,0,0,1,4.492,14.791Z" transform="translate(-82.332 -50.25)" fill="#a0616a"/>
      <path id="Path_818" data-name="Path 818" d="M135.537,181.663l-6.193-.968-6.247-.978a4.828,4.828,0,0,1-3.907-6.061l5.422-19.534a11.03,11.03,0,0,0-5.449-12.627,10.961,10.961,0,0,0-15.817,7.318l-6.839,30.782a14.766,14.766,0,0,0,13.422,17.93l23.655,1.586a3.46,3.46,0,0,0,3.655-2.925c.01-.048.014-.1.02-.143l1.172-10.477.01-.1A3.458,3.458,0,0,0,135.537,181.663Z" transform="translate(-82.332 -50.25)" fill="#ccc"/>
      <path id="Path_819" data-name="Path 819" d="M240.333,165.425l-1.418.773-17.466,9.53-1.418.773a2.961,2.961,0,0,0-1.18,4.013l13.006,23.837a2.961,2.961,0,0,0,4.013,1.18l0,0,20.294-11.073,0,0a2.961,2.961,0,0,0,1.18-4.013L244.346,166.6a2.961,2.961,0,0,0-4.013-1.18Z" transform="translate(-82.332 -50.25)" fill="#e6e6e6"/>
      <path id="Path_820" data-name="Path 820" d="M240.741,166.172l-1.679.916-16.943,9.244-1.679.916a2.108,2.108,0,0,0-.84,2.858l13.006,23.837a2.108,2.108,0,0,0,2.857.84l0,0,20.293-11.073,0,0a2.108,2.108,0,0,0,.84-2.858L243.6,167.012a2.108,2.108,0,0,0-2.857-.84Z" transform="translate(-82.332 -50.25)" fill="#fff"/>
      <path id="Path_821" data-name="Path 821" d="M241.217,172.9a.5.5,0,0,0-.669-.2l-.676.37-6.893,3.761a.493.493,0,1,0,.472.866l7.569-4.131a.5.5,0,0,0,.2-.669Z" transform="translate(-82.332 -50.25)" fill="#e6e6e6"/>
      <path id="Path_822" data-name="Path 822" d="M243.8,173.388a.488.488,0,0,0-.666-.194l-9.353,5.1a.492.492,0,1,0,.472.863l.435-.238,2.721-1.485h0l6.19-3.38a.489.489,0,0,0,.2-.669Z" transform="translate(-82.332 -50.25)" fill="#e6e6e6"/>
      <path id="Path_823" data-name="Path 823" d="M233.631,181.521l-2.969-5.446a.238.238,0,0,0-.323-.092l-1.44.785-.747.408-4.012,2.188-.778.425a.239.239,0,0,0-.092.323l.19.35,2.779,5.1a.235.235,0,0,0,.319.092l4.79-2.612.747-.408,1.44-.785a.237.237,0,0,0,.1-.323Z" transform="translate(-82.332 -50.25)" fill="#e6e6e6"/>
      <path id="Path_824" data-name="Path 824" d="M244.971,179.812a.492.492,0,0,0-.666-.2l-10.266,5.6a.492.492,0,0,0-.248.52.412.412,0,0,0,.051.149.5.5,0,0,0,.1.126l0,0a.5.5,0,0,0,.567.068l10.266-5.6a.492.492,0,0,0,.194-.669Z" transform="translate(-82.332 -50.25)" fill="#e6e6e6"/>
      <path id="Path_825" data-name="Path 825" d="M247.553,180.3a.493.493,0,0,0-.669-.194l-12.05,6.574a.481.481,0,0,0-.248.513v0a.411.411,0,0,0,.051.15.476.476,0,0,0,.1.129.486.486,0,0,0,.567.068l12.05-6.574a.5.5,0,0,0,.2-.669Z" transform="translate(-82.332 -50.25)" fill="#e6e6e6"/>
      <circle id="Ellipse_86" data-name="Ellipse 86" cx="2.089" cy="2.089" r="2.089" transform="translate(146.179 136.241)" fill="#e6e6e6"/>
      <path id="Path_826" data-name="Path 826" d="M246.448,156.252l-1.418.773-17.466,9.53-1.418.773a2.961,2.961,0,0,0-1.18,4.013l13.006,23.837a2.961,2.961,0,0,0,4.013,1.18l0,0,20.294-11.073,0,0a2.961,2.961,0,0,0,1.18-4.013l-13.006-23.837a2.961,2.961,0,0,0-4.013-1.18Z" transform="translate(-82.332 -50.25)" fill="#ccc"/>
      <path id="Path_827" data-name="Path 827" d="M246.856,157l-1.679.916-16.943,9.244-1.679.916a2.108,2.108,0,0,0-.84,2.858l13.006,23.837a2.108,2.108,0,0,0,2.857.84l0,0,20.293-11.073,0,0a2.108,2.108,0,0,0,.84-2.857L249.713,157.84a2.108,2.108,0,0,0-2.857-.84Z" transform="translate(-82.332 -50.25)" fill="#fff"/>
      <path id="Path_828" data-name="Path 828" d="M247.332,163.73a.5.5,0,0,0-.669-.2l-3.485,1.9-.972.53-3.112,1.7a.493.493,0,1,0,.472.866l3.669-2,.768-.421,3.132-1.709a.5.5,0,0,0,.2-.669Z" transform="translate(-82.332 -50.25)" fill="#ccc"/>
      <path id="Path_829" data-name="Path 829" d="M249.911,164.215a.488.488,0,0,0-.666-.194l-4.861,2.653-.747.408-3.744,2.042a.492.492,0,1,0,.472.863l3.744-2.042.747-.408,4.858-2.653a.489.489,0,0,0,.2-.669Z" transform="translate(-82.332 -50.25)" fill="#ccc"/>
      <path id="Path_830" data-name="Path 830" d="M239.746,172.348l-2.368-4.342-.408-.747-.194-.357a.238.238,0,0,0-.323-.092l-4.807,2.623-2.171,1.182a.239.239,0,0,0-.092.323l.194.353.211.391.2.357v0l2.368,4.342a.235.235,0,0,0,.319.092l6.978-3.8a.237.237,0,0,0,.1-.323Z" transform="translate(-82.332 -50.25)" fill="#8a57dc"/>
      <path id="Path_831" data-name="Path 831" d="M251.086,170.639a.492.492,0,0,0-.666-.2l-3.068,1.675-.747.408-2.962,1.614-3.489,1.906a.493.493,0,0,0,.472.866l6.451-3.52.747-.408,3.068-1.675a.492.492,0,0,0,.194-.669Z" transform="translate(-82.332 -50.25)" fill="#ccc"/>
      <path id="Path_832" data-name="Path 832" d="M253.668,171.125a.493.493,0,0,0-.669-.194l-4.848,2.646-.747.408-6.455,3.519a.492.492,0,1,0,.472.863l6.451-3.52.747-.408,4.851-2.646A.5.5,0,0,0,253.668,171.125Z" transform="translate(-82.332 -50.25)" fill="#ccc"/>
      <circle id="Ellipse_87" data-name="Ellipse 87" cx="2.089" cy="2.089" r="2.089" transform="translate(152.294 127.069)" fill="#ccc"/>
      <path id="Path_833" data-name="Path 833" d="M238.119,191.154a6.723,6.723,0,0,1,1.042.186l23.7-21.021-1.532-7.541,11.079-3.8,4.01,13.086a5.11,5.11,0,0,1-2.081,5.768l-30.124,19.778a6.7,6.7,0,1,1-6.088-6.458Z" transform="translate(-82.332 -50.25)" fill="#ffb8b8"/>
      <path id="Path_834" data-name="Path 834" d="M279.167,160.862l-6.713-12.821a7.975,7.975,0,0,0-9.927-4.94c-.075.02-.146.044-.221.071a7.992,7.992,0,0,0-4.913,10.168l2.694,14.17a2.869,2.869,0,0,0,1.386,1.95,2.8,2.8,0,0,0,1.284.38,2.765,2.765,0,0,0,1.1-.153l1.44-.5,9.247-3.221,3.024-1.053a2.878,2.878,0,0,0,1.6-4.049Z" transform="translate(-82.332 -50.25)" fill="#8a57dc"/>
      <path id="Path_835" data-name="Path 835" d="M304.508,210.315H82.671a.34.34,0,1,1,0-.679H304.508a.34.34,0,0,1,0,.679Z" transform="translate(-82.332 -50.25)" fill="#3f3d56"/>
      <path id="Path_836" data-name="Path 836" d="M120.889,204.03v.17a5.95,5.95,0,0,0,3.543,5.436,5.854,5.854,0,0,0,2.4.51H181.7V204.03Z" transform="translate(-82.332 -50.25)" fill="#3f3d56"/>
      <path id="Path_837" data-name="Path 837" d="M220.005,163.73a11.072,11.072,0,0,0-3.88-4.423,10.86,10.86,0,0,0-2.429-1.2,11,11,0,0,0-3.632-.615H157.408a11.054,11.054,0,0,0-11.041,11.041V199.1a10.663,10.663,0,0,0,.075,1.284,11.136,11.136,0,0,0,.387,1.882,10.852,10.852,0,0,0,.7,1.76,11.029,11.029,0,0,0,9.879,6.115h52.657A11.037,11.037,0,0,0,221.106,199.1V168.53a10.946,10.946,0,0,0-1.1-4.8Z" transform="translate(-82.332 -50.25)" fill="#3f3d56"/>
      <circle id="Ellipse_88" data-name="Ellipse 88" cx="2.718" cy="2.718" r="2.718" transform="translate(101.575 130.85)" fill="#fff"/>
    </g>
  </g>
</svg>
